<?xml version="1.0" encoding="UTF-8"?>
<svg version="1.1" viewBox="0 0 2000 2000" width="1280" height="1280" xmlns="http://www.w3.org/2000/svg">
<path transform="translate(924,34)" d="m0 0h131l21 6 36 7 31 9 25 9 26 11 26 13 22 14 17 12 13 11 10 9 18 18 9 11 12 17 10 17 12 22 9 25 7 27 4 22 4 50v107l6 11 1 4-4-3v25l-1 5-2 27-3 21-6 45-1 25 5-1 13-11 5-4 12-6 7-3h11l5 3 4 5 2 6v17l-4 32-5 23-7 24-18 45-11 32-6 12-10 15-13 21-11 16-6 7-11 9-2 2h-9l-9-3-3 9-16 32-7 16-6 18-6 21-4 13 6-13 11-29 7-20 7-16 5-8h1l-1 19-8 79-2 20-2 44v23l1 14 7 12 8 14 8 22 13 44 14 41 15 28 16 32 8 14 9 15 15 29v5l-11 9-9 8-8 6h-2v2h-2v2h-2v2h-2v2l-8 7-16 13-8 7-9 8-3 3 24-15 15-11 25-15 19-12 17-10-1-5-13-25-12-21-15-25-7-14-10-17-6-13-6-17-11-26-7-21-5-19v-3l4 2 10 9 14 11 14 12 19 13 15 11 22 14 28 16 27 14 30 14 39 15 20 7 28 11 36 12 31 11 25 9 24 9 20 9 10 6-1 2-28 9-29 9-36 12-43 15-72 28-25 11-24 10-23 11-19 10-23 11-16 8-22 12-16 8-14 8-27 16-14 7-10 7-19 12-21 14-17 12-12 8-14 11-14 12-9 7-13 12h-2l-1 3-8 7-10 9-17 17h-2v2l-13 13-7 10-4 20-7 20-8 16-8 12v5l6-9 7-11 10-13 13-15 26-26 2-3h2l2-4 10-9 3-3h2l2-4 9-9 8-7 16-13 10-8 36-27 23-15 17-11 29-17 16-9 38-19 19-10 18-8 21-9 23-10 35-11 29-10 28-8 52-14 40-10 42-8 37-7 25-5 67-10 44-5 23-2h15l1 5v37l-3 2-45 7-84 11-48 7-38 7-63 13-37 8-69 19-27 8-13 5-48 19-21 8-14 7-20 9-24 11-16 8-35 18-19 12-21 13-11 7-18 13-14 10-13 10-10 9-14 11-12 11-11 9-9 8h-2v2l-8 7-13 12-12 11-2 3h-2l-2 4-7 8-1 2 3 1 1 12 1 1 6-11 9-10 30-30 8-7 12-12 11-9 15-14 14-11 10-8 14-10 15-11 16-10 23-15 25-14 16-8 7-4 23-11 25-11 15-7 37-15 21-8 21-7 14-3 32-10 44-11 53-12 38-8 30-5 84-10 18-1v49l-10 2-64 7-58 7-35 6-44 9-29 7-26 6-24 7-57 19-23 7-29 11-26 11-23 9-16 8-25 12-23 11-11 7-11 6-16 9-19 13-15 10-11 7-14 10-12 9-15 11-12 11-11 9-10 9-13 13-4 3v17l7-10 12-13 10-9 11-11 11-9 16-13 11-9 12-9 17-10 8-6 20-12 25-14 13-8 28-13 16-8 21-10 22-8 8-4 25-9 58-19 25-7 39-10 43-11 55-11 35-6 67-10 45-5 86-7 55-2h28l1 3-1 47-2 1-82 6-93 8-33 4-91 13-27 5-50 10-38 9-32 8-26 8-30 9-64 21-23 8-39 15-21 9-38 17-16 7-35 18-16 8-14 8-20 12-24 13-14 11h-2l-1 20-4 13-2 9-4 7-6 12h1l14-11 33-22 14-9 32-20 21-11 9-4 18-10 33-15 23-11 19-8 25-9 19-8 24-9 32-10 38-13 25-7 16-3 56-14 42-9 42-8 51-8 26-4 31-4 89-10 46-5 49-4 59-4 10-1 2 1v53l-5 2-81 7-89 9-75 8-46 6-40 7-66 12-43 9-35 9-42 13-35 10-69 24-24 9-24 11-20 8-71 34-24 14-24 13-26 17-14 9-13 10-16 13-12 9-16 11-12 5-20 5-20 4-10 1h-18l-16-3-21-5-12-5-10-6-16-12-14-12-12-9-11-9-17-11-14-10-10-6-26-15-19-11-29-14-16-8-20-9-24-10-18-8-12-5-29-10-47-17-25-8-32-9-25-8-31-8-39-8-82-15-46-7-51-6-76-8-47-5-64-6-49-4-5-2-1-50 1-2h12l46 2 66 5 63 7 86 10 49 7 53 9 56 11 42 9 31 8 33 7 34 10 66 22 30 13 28 10 40 19 24 11 17 9 14 8 19 10 24 15 25 16 10 8h1l-3-17-2-8-1-8v-16l-8-6-18-10-23-14-27-14-22-12-19-9-33-15-26-11-25-9-24-10-28-10-35-11-36-12-37-11-73-18-48-9-47-7-50-7-35-5-39-4-150-12-6-2-1-10v-38l1-1h18l50 2 70 5 40 4 40 5 50 7 72 12 34 7 58 14 19 5 21 5 28 9 21 6 37 14 16 7 19 7 40 20 23 11 20 12 17 10 15 9 20 13 13 9 13 10 13 11 12 9 14 11 8 8-1-6-3-6-13-10-12-11-19-14-10-9-7-6-12-7-28-19-15-10-14-8-19-11-17-8-32-16-25-11-32-13-29-11-35-11-25-9-26-8-27-7-82-17-46-8-61-7-40-4-29-3-3-2v-16l1-32 85 8 37 5 27 5 43 9 49 11 25 7 33 10 32 8 24 9 31 11 19 8 23 11 24 11 27 15 23 13 19 13 17 11 14 10 16 13 13 10 13 11 14 12 8 7 9 8 5 6 16 14 8 10 2 3 3 1-1-16-3-2v-2l-3-1-5-6-8-7-15-14-15-13-14-11-13-11-18-13-12-9-17-12-42-26-25-14-17-10-41-20-18-8-41-16-30-12-17-6-29-9-35-9-24-7-36-8-80-16-47-8-44-6-48-6-64-9-8-2-1-1v-19l1-23h11l42 4 39 5 47 7 34 6 73 14 51 12 29 8 31 8 32 10 33 11 23 7 27 12 17 6 29 14 22 12 14 7 21 13 14 8 24 16 13 9 21 14 4 6 10 6 16 13 13 11 10 9 8 7 17 16 38 38 7 9 3 6 1-32-3-8-13-16-11-12-11-11-8-7-12-11-8-7-13-11-14-11-15-12-17-12-12-8-11-9-20-12-24-16-17-10-22-13-13-8-24-11-16-9-22-12-20-9-32-17-13-6-26-11-23-10-39-15-33-13-61-20-53-16-19-5 2-4 23-11 20-8 26-10 29-11 36-12 31-12 44-16 33-14 24-11 23-12 24-14 10-6 22-15 16-11 19-14 14-12 10-9 4-5 5-2-4 17-5 19-9 24-7 17-3 5-1 7-12 23-10 17-11 21-12 19-12 20-8 14 1 4 20 12 10 7 15 9 18 11 14 10 14 9-15-15-11-9-11-10-17-13-12-11-7-8 9-19 13-22 10-16 20-40 9-16 6-12 9-24 11-35 6-26 5-17 11-18 6-12 1-4v-43l-4-47-4-33-2-19-2-41 1-9h2l7 15 12 35 6 18 15 30 3 7-1-7-3-9-1-10v-8l-2-6-2-4-2-15-10-30-9-19-11-18-6-10-9-19 2 8 4 17-2 4-7 2h-7l-11-6-8-7-10-14-12-21-11-18-10-17-9-24-15-42-11-39-5-21-2-22v-20l2-9 5-5 5-3 9 1 12 4 14 10 8 5 5 1 1-3v-14l1-8-3-5-1-13-3-6-4-20-2-20-2-22-1-20-2-3v-11l2-3 1-11v-92l1-23 3-35 9-40 7-22 8-19 13-25 12-19 11-13 9-11 14-15 8-7 15-13 18-13 21-13 29-14 28-11 19-7 37-12 27-7zm-204 230-1 1-3 19-4 26-1 12-1 39v24l2-2 5-11 6-19 5-18 1-8v-12l-4-17-3-30zm612 451m-648 103m1 2 1 2zm535 242-6 11-6 9-1 2-1 20v53l14 7 1-3v-22l1-75z" fill="#175DAD"/>
<path transform="translate(753,1187)" d="m0 0 7 1 10 4 13 8 15 9 4 5 8 5 13 9 15 10 8 4 20 14 8 7 3 6 5 20 11 37 9 27 6 25 10 33 4 10 6 22 16 58 8 22 5 18 10 40 13 38 3 14 7 26 4 8 5 1 5-11 3-10 8-27 8-26 8-32 4-15 5-14 6-20 9-33 4-16 8-28 8-24 5-19 6-24 5-16 5-15 8-30 7-30 5-13 11-10 14-10 16-9 27-18 11-9 14-8 18-11 6-3h5l4 6 6 17 8 24 10 25 1 1v5l-9 11-10 13-7 9-11 17-10 16-12 22-14 26-8 15-10 23-9 20-4 8-8 18-10 26-9 20-8 19-10 30-6 14-5 12-20 56-6 16-7 20-7 22-6 16-10 27-7 23-2 10 4-1 4-6 9-14 9-13 7-10 8-13 4-6 7-8 9-11 8-10 5-3-2 16-8 23-8 16-8 12v5l6-9 7-11 10-13 13-15 26-26 2-3h2l2-4 10-9 3-3h2l2-4 9-9 8-7 16-13 10-8 36-27 23-15 17-11 29-17 16-9 38-19 19-10 18-8 21-9 23-10 35-11 29-10 28-8 52-14 40-10 42-8 37-7 25-5 67-10 44-5 23-2h15l1 5v37l-3 2-45 7-84 11-48 7-38 7-63 13-37 8-69 19-27 8-13 5-48 19-21 8-14 7-20 9-24 11-16 8-35 18-19 12-21 13-11 7-18 13-14 10-13 10-10 9-14 11-12 11-11 9-9 8h-2v2l-8 7-13 12-12 11-2 3h-2l-2 4-7 8-1 2 3 1 1 12 1 1 6-11 9-10 30-30 8-7 12-12 11-9 15-14 14-11 10-8 14-10 15-11 16-10 23-15 25-14 16-8 7-4 23-11 25-11 15-7 37-15 21-8 21-7 14-3 32-10 44-11 53-12 38-8 30-5 84-10 18-1v49l-10 2-64 7-58 7-35 6-44 9-29 7-26 6-24 7-57 19-23 7-29 11-26 11-23 9-16 8-25 12-23 11-11 7-11 6-16 9-19 13-15 10-11 7-14 10-12 9-15 11-12 11-11 9-10 9-13 13-4 3v17l7-10 12-13 10-9 11-11 11-9 16-13 11-9 12-9 17-10 8-6 20-12 25-14 13-8 28-13 16-8 21-10 22-8 8-4 25-9 58-19 25-7 39-10 43-11 55-11 35-6 67-10 45-5 86-7 55-2h28l1 3-1 47-2 1-82 6-93 8-33 4-91 13-27 5-50 10-38 9-32 8-26 8-30 9-64 21-23 8-39 15-21 9-38 17-16 7-35 18-16 8-14 8-20 12-24 13-14 11h-2l-1 20-4 13-2 9-4 7-6 12h1l14-11 33-22 14-9 32-20 21-11 9-4 18-10 33-15 23-11 19-8 25-9 19-8 24-9 32-10 38-13 25-7 16-3 56-14 42-9 42-8 51-8 26-4 31-4 89-10 46-5 49-4 59-4 10-1 2 1v53l-5 2-81 7-89 9-75 8-46 6-40 7-66 12-43 9-35 9-42 13-35 10-69 24-24 9-24 11-20 8-71 34-24 14-24 13-26 17-14 9-13 10-16 13-12 9-16 11-12 5-20 5-20 4-10 1h-18l-16-3-21-5-12-5-10-6-16-12-14-12-12-9-11-9-17-11-14-10-10-6-26-15-19-11-29-14-16-8-20-9-24-10-18-8-12-5-29-10-47-17-25-8-32-9-25-8-31-8-39-8-82-15-46-7-51-6-76-8-47-5-64-6-49-4-5-2-1-50 1-2h12l46 2 66 5 63 7 86 10 49 7 53 9 56 11 42 9 31 8 33 7 34 10 66 22 30 13 28 10 40 19 24 11 17 9 14 8 19 10 24 15 25 16 10 8h1l-3-17-2-8-1-8v-16l-8-6-18-10-23-14-27-14-22-12-19-9-33-15-26-11-25-9-24-10-28-10-35-11-36-12-37-11-73-18-48-9-47-7-50-7-35-5-39-4-150-12-6-2-1-10v-38l1-1h18l50 2 70 5 40 4 40 5 50 7 72 12 34 7 58 14 19 5 21 5 28 9 21 6 37 14 16 7 19 7 40 20 23 11 20 12 17 10 15 9 20 13 13 9 13 10 13 11 12 9 14 11 8 8-1-6-3-6-13-10-12-11-19-14-10-9-7-6-12-7-28-19-15-10-14-8-19-11-17-8-32-16-25-11-32-13-29-11-35-11-25-9-26-8-27-7-82-17-46-8-61-7-40-4-29-3-3-2v-16l1-32 85 8 37 5 27 5 43 9 49 11 25 7 33 10 32 8 24 9 31 11 19 8 23 11 24 11 27 15 23 13 19 13 17 11 14 10 16 13 13 10 13 11 14 12 8 7 9 8 5 6 16 14 8 10 2 3 3 1-1-16-3-2v-2l-3-1-5-6-8-7-15-14-15-13-14-11-13-11-18-13-12-9-17-12-42-26-25-14-17-10-41-20-18-8-41-16-30-12-17-6-29-9-35-9-24-7-36-8-80-16-47-8-44-6-48-6-64-9-8-2-1-1v-19l1-23h11l42 4 39 5 47 7 34 6 73 14 51 12 29 8 31 8 32 10 33 11 23 7 27 12 17 6 29 14 22 12 14 7 21 13 14 8 24 16 13 9 21 14 4 6 10 6 16 13 13 11 10 9 8 7 17 16 38 38 7 9 3 6 1-35 3 1 7 8 12 14 12 18 15 20 12 20 7 11 4 2h2l-4-13-9-28-7-20-3-9-7-17-4-16-7-21-16-41-14-39-9-21-4-10-10-30-7-17-7-15-6-15-11-27-14-29-8-20-8-16-20-39-8-14-10-15-3-3-5-10-15-18v-2h-2l-6-7-1-7 3-13 4-9 3-10 3-8 5-16 6-12z" fill="#FDFDFD"/>
<path transform="translate(698,874)" d="m0 0h2l7 15 12 35 6 18 15 30 3 7h3l14 22 10 14 2 5v149l4 5 10 4 1-4v-101l1-27 2-2 8 7v2h2l6 8 16 16 8 7 13 11 16 13 12 9 12 8 13 8 15 9 19 9 22 7 11 3 14 3 10 1h13l20-2 7-3 11-2 22-8 16-8 24-15 12-8 16-12 12-10 9-7 16-15 15-15h2v-2h2l2-4 10-10 8-5 2 2 1 5v111l13 6v-24l1-75-1-48 10-16 7-10 16-26 2-2 1 1 4-8 13-33 7-21 8-18 5-8h1l-1 19-8 79-2 20-2 44v23l1 14 7 12 8 14 8 22 13 44 14 41 15 28 16 32 8 14 9 15 15 29v5l-11 9-9 8-8 6h-2v2h-2v2h-2v2h-2v2l-8 7-16 13-8 7-9 8-3 3 24-15 15-11 25-15 19-12 17-10-1-5-13-25-12-21-15-25-7-14-10-17-6-13-6-17-11-26-7-21-5-19v-3l4 2 10 9 14 11 14 12 19 13 15 11 22 14 28 16 27 14 30 14 39 15 20 7 28 11 36 12 31 11 25 9 24 9 20 9 10 6-1 2-28 9-29 9-36 12-43 15-72 28-25 11-24 10-23 11-19 10-23 11-16 8-22 12-16 8-14 8-27 16-14 7-10 7-19 12-21 14-17 12-12 8-14 11-14 12-9 7-13 12h-2l-1 3-8 7-10 9-17 17h-2v2l-13 13-9 12-4 2-2 4-11 13-7 9-6 7-7 12-12 17-7 11-8 12-5 7h-4l1-10 10-32 8-20 5-14 9-29 10-25 10-30 9-24 6-17 4-8 6-15 8-24 5-13 7-15 8-19 8-21 6-13 11-23 14-32 10-19 10-18 13-24 9-14 16-24 6-7 8-10 7-9v-5l-6-13-6-16-7-21-6-17-3-5-7 1-11 6-18 11-8 5-14 11-17 11-25 15-13 10-8 7-6 16-7 31-7 26-5 15-6 19-7 29-7 24-8 24-7 26-6 23-4 15-7 24-6 16-7 29-6 22-12 39-3 11-5 13-2 2-5-1-3-4-5-16-5-18-3-13-13-40-4-16-7-26-3-12-9-25-15-55-7-25-5-14-6-19-7-27-4-15-3-7-4-13-12-41-4-16-7-8-11-7-8-6-8-5-9-5-12-8-11-8-9-6-5-5-14-8-13-8-10-4h-5l-6 10-5 15-3 11-3 8-4 11-2 3-2 14 2 5 4 4v2h2l11 14 8 11 3 6 4 5 11 17 15 29 13 24 9 21 8 18 11 23 22 54 6 13 7 19 7 22 6 13 8 20 9 25 6 16 16 42 4 12 4 16 7 18 3 9 8 23 9 28 1 7-3 1-5-4-8-14-10-16-7-9-13-18-8-12-9-10-7-8-1-3-4-2-6-9-9-11-11-12-11-11-8-7-12-11-8-7-13-11-14-11-15-12-17-12-12-8-11-9-20-12-24-16-17-10-22-13-13-8-24-11-16-9-22-12-20-9-32-17-13-6-26-11-23-10-39-15-33-13-61-20-53-16-19-5 2-4 23-11 20-8 26-10 29-11 36-12 31-12 44-16 33-14 24-11 23-12 24-14 10-6 22-15 16-11 19-14 14-12 10-9 4-5 5-2-4 17-5 19-9 24-7 17-3 5-1 7-12 23-10 17-11 21-12 19-12 20-8 14 1 4 20 12 10 7 15 9 18 11 14 10 14 9-15-15-11-9-11-10-17-13-12-11-7-8 9-19 13-22 10-16 20-40 9-16 6-12 9-24 11-35 6-26 5-17 11-18 6-12 1-4v-43l-4-47-4-33-2-19-2-41z" fill="#175DAD"/>
<path transform="translate(967,63)" d="m0 0h50l23 1 19 3 12 3 26 8 13 5 22 10 18 11 9 5 16 12 9 7 12 11 10 9 11 12 9 11 12 16 7 11 9 15 12 25 9 24 6 22 4 19 2 22v48l-2 24-6 28-8 26-9 21-11 22-11 18-9 12-7 9-9 10-8 10-10 10-11 9-16 13-15 10-13 8-8 5-14 6-12 5-9 4-10 4-34 8-17 3-28 1h-36l-21-2-29-6-30-10-21-9-23-12-18-12-16-12-11-10-8-7-11-11-7-8-10-12-8-11-12-19-14-27-6-14-7-19-7-26-4-29 5-11 6-19 5-18 1-8v-12l-4-17-3-32 10-28 13-27 11-18 10-14 9-12 9-10 11-12 17-16 13-10 15-11 12-7 19-10 12-6 12-5 20-7 13-4 20-4z" fill="#FEFEFE"/>
<path transform="translate(1009,40)" d="m0 0h20l22 1 9 1 7 2 5 1v2l10 1 15 3 3 2 10 2 13 4 6 3 7 2v3h6l2 2 14 7 15 8 16 10 19 13 10 8 14 11v2h2v2l4 2 18 18v2h2l4 5v2h2l3 5 8 10 7 10 8 13 9 14 8 14v3h2l4 6v3h2l5 6 5 9 2 2 3 8 6 8 4 10v3l-1 2h2l3 7 3 5v2h2l4 10 4 3v2h2l5 21 3 9v95l-3 15-6 7-4 2-1 2-3 1-7 8h-4l-2 4h-2l-3 13-2 9-2 14-2 27-3 16-1 18-1 6-2 18-2 31-1 16-2 39-2 14-2 25-4 16-3 8-3 7-3 20-2 9-2 7-2 4-5 24-2 10-3 13-4 17-10 25-6 17-3 9-1 2h-2v5l-3 6-2 6-6 11-10 17-7 14-8 11-10 14-4 4h-2l-1 4-7 9-4 2-2 5-2 3h-2v2h-2l-2 4-2 3h-2v2h-2l-2 5-7 7-5 6h-2l-2 5-10 8-2 3h-2l-2 4-8 6-5 5-12 9-11 9-9 7-6 4h-3v2l-3 2h-3v2l-9 3-7 6-15 8-16 4h-13l-13 2-6 1-3-2v-2l-5 1-3-2 1-1-6-4-3-1v-2l-4-1-1-3 2-1 19-2 10-2 12-4 16-9 11-9 8-11 2-4v-7l-7-11-7-3-12-2-5 1-11 2-23-2-26-5-9-2-4-3 2-3h8v-9l2-3 14 3 16 1 21-3 12-4 12-9 10-9h2l1-5 7-9 10-2h8l7-2 3-1 3-3 1-5-9-2-9-1-2-1h-30l-21 9-18 10-4 1h-11l-10-4-9-5v-2l-5-1-9-6-10-4-7-1-5-1-12 1h-9l-9 4-12 1v-4l5-4 21-10 15-4 13-2h15l9 3 11 4 8 4 4 1v-2l8-1 3 3 2-2v-2l-3-1 8-5 3 1v-2l14-3 5-1h15l7-2 8-1 3-3 5-3 1-3 9-1 6-4 3-3 2-10 3-6h2l1-3h2l3-10 4-8 1-1 1-7h2l1-5 4-5 2-5h2v-2h2l1-11 3-5 7-4 2-4 1-9 3-3h2v-6l4-8h2l3-12 6-15 5-4 1-9-1-10 2-3 1-15h2l2-11v-10l6-4 5-3 13-6 7-2v-2l7-3 8-7 1-2h2l2-5 5-5h2l1-4 3-3 1-2h2l3-9 2-11-1-2-2 2-3-9-4-2h-9l-1 1h-10l-6-4-21-2-6-4-1-2-6-3 1-5 5-4 12-2h21l11 6 6 4 1 1-3-7-3-3v-3l-6-1-8-3-6-1h-25l-12 2-19 6-12 6-18 7-27 8-24 5-20 3-12 1-32 1-22-1-5-2 2-2 16-8 17-11 4-4 28-1 31-6 23-6 10-5 17-6 12-6 9-2 2-2 6-2 5-5 12-7 2-2 5-1 2-4 10-7 8-7 9-8 5-5 9-10 4-4h2l2-6 9-10 2-4 4-6h2v-2h2l1-4 4-7h2l7-15 2-5 3-5 2-5 3-3 5-14 3-12 4-8h3l1-8 4-20 2-18 1-14 1-1v-9l1-9v-19l1-8-3-17v-8l1-9-1-3-3-3-3-12-1-9-2-3-3-13-3-3-3-9-6-15-5-10-2-6h-2l-4-8-6-9-3-7-3-4v-2l-4-2-6-9-2-6-3-1v-2l-4-2-4-5v-2l-4-2v-2l-4-2-7-7-5-6-3-2v-2l-3-1-5-5h-3l-5-5-11-7-6-5-6-3-9-5-7-6-13-5-12-5-3-2v-2l-7-1-22-7-23-5-4-2-15-2-3-1-27-2-9-2-7-4-5-6-2-1 1-2 11-1z" fill="#164082"/>
<path transform="translate(1973,1621)" d="m0 0 3 1v53l-5 2-81 7-89 9-75 8-46 6-40 7-66 12-43 9-35 9-42 13-35 10-69 24-24 9-24 11-20 8-71 34-24 14-24 13-26 17-14 9-13 10-16 13-12 9-16 11-12 5-20 5-20 4-10 1h-18l-16-3-21-5-12-5-10-6-16-12-14-12-12-9-11-9-17-11-14-10-10-6-26-15-19-11-29-14-16-8-20-9-24-10-18-8-12-5-29-10-47-17-25-8-32-9-25-8-31-8-39-8-82-15-46-7-51-6-76-8-47-5-64-6-49-4-5-2-1-50 1-2h12l46 2 66 5 63 7 86 10 49 7 53 9 56 11 42 9 31 8 33 7 34 10 66 22 30 13 28 10 40 19 24 11 17 9 14 8 19 10 24 15 25 16 10 8 6 4 13 8 17 14 7 6 17 10 16 7 18 5 22 1 11-2 15-4 17-7 19-11 5-3 7-6 13-10 33-22 14-9 32-20 21-11 9-4 18-10 33-15 23-11 19-8 25-9 19-8 24-9 32-10 38-13 25-7 16-3 56-14 42-9 42-8 51-8 26-4 31-4 89-10 46-5 49-4 59-4z" fill="#164082"/>
<path transform="translate(992,79)" d="m0 0h14l25 1 18 3 10 3-1 5-3 8-2 7v13l2 10 1 3v11l-1 1-26 2-13 2-13 5-10 9-4 9-2 16-3 5-8 7-7 5-6 8-2 5v10l4 7 7 5 8 2 11 1 7 1 8-1 28-1 21 2 11 4 8 6 4 5 1 3v11l-3 6-11 2h-12l-31-3-36-9-14-2h-19l-20 4-16 8-10 7-11 11-9 14-6 15-2 9v29l3 11 7 14 9 9 14 8 16 7 15 4h28l11 2 8 7 3 9 1 17 8 20 2 16v8l3 19 5 16 8 16 6 8 9 6 5 2h13l10-4 11-7 16-13 12-12 10-15 4-9 3-12 3-30 4-13 6-11 10-13 11-16 8-14 2-6v-10l-2-4-16-7-9-4-6-4-5-4-9-11-1-1v-8l5-5 6 1 8 4 6 2h19l8-5 5-8v-9l-6-15v-7l4-7 2-1h9l12 5 12 9 2 1 10-1 22-6h17l6 4 4 6 4 10 1 15v39l-2 20-3 19-7 27-7 19-8 19-13 23-15 22-9 11-11 13-11 11-11 9-12 10-15 10-15 9-28 14-22 8-27 7-11 2-5-1-17-17-14-10-15-8-17-6-19-3h-18l-21 3-17 5-22 10-3 1-11-6-12-7-18-13-13-10-9-9-4-3 2-4 5-4 6-9 2-6 1-39 5-19 4-12 1-7v-9l-5-13-7-11-13-13-8-7-10-10-5-9-2-19v-29l-5-12-6-7-8-5-16-6-12-2-2-1v-10l5-16 4-6 16-1 11-5 14-10 15-14 7-6 6-4 13-5 14-8 9-7 9-12 2-4 1-8v-19l-2-18-3-17 5-5 17-10 21-9 8-3 15-5 14-4 19-3 2 3v17l-3 6-8 5-16 7-20 11-8 7-6 9-1 3v7l5 6 2 1h6l5-8 3-6 7-6 8-4 9-4 5-3 10-3 9-6 5-4 4-9 1-5 2-25 6-2z" fill="#175DAD"/>
<path transform="translate(1322,1130)" d="m0 0 4 2 10 9 14 11 14 12 19 13 15 11 22 14 28 16 27 14 30 14 39 15 20 7 28 11 36 12 31 11 25 9 24 9 20 9 10 6-1 2-28 9-29 9-36 12-43 15-72 28-25 11-24 10-23 11-19 10-23 11-16 8-22 12-16 8-14 8-27 16-14 7-10 7-19 12-21 14-17 12-12 8-14 11-14 12-9 7-13 12h-2l-1 3-8 7-10 9-17 17h-2v2l-13 13-6 4-8 5h-2v2h-2v3l-6 5-7 8h-2v2l-8 5-1 2-8 1-2-2 3-11 3-1-1-4 2-10 1-3h2v-7l4-10 4-12 6-16 4-14 3-7 6-15 6-20 4-10 3-5 4-11 6-17 4-8 4-2 1-2 3-4v-8l2-1 2-10 3-3 6-11 3-8v-3h2v-4l4-1v3l5-3h2l2-5 3-5 3-11v-7l-3 1-1-8 3-10 1-2 7-1 2 2 1 2 3-1 1-5 3-3h2l1-10-2-4 2-3h2l2-6 4-1 6-13 2-7 4-6 13-26 4-6 3-2 1-10 4-2 2-3 4-2 6-8 6-7 2-5 4-8 1-6v-3l1-7 2-1 1-5 5-6 5-16 5-10 10-28 4-13 4-6 1 3h2v3h4l6 6 3 2 4 10 5 6 4 4 11 21 16 32 13 22 12 22 6 12v5l-11 9-9 8-8 6h-2v2h-2v2h-2v2h-2v2l-8 7-16 13-8 7-9 8-3 3 24-15 15-11 25-15 19-12 17-10-1-5-13-25-12-21-15-25-7-14-10-17-6-13-6-17-11-26-7-21-5-19z" fill="#164082"/>
<path transform="translate(666,1128)" d="m0 0h2l-4 17-5 19-9 24-7 17-3 5-1 7-12 23-10 17-11 21-12 19-12 20-8 14 1 4 20 12 10 7 15 9 18 11 14 10 14 9-15-15-11-9-11-10-17-13-12-11-7-8 5-5h2l2-5 6-10 6-9v-2h2l1-4 2-1 2-7h2l2-4 4-10 8-6 4-6 2-2 4-10 4-8 4-2 4-8 1-4h2l-1-3h2l1-3v2h2v-6l14 5 1-4 4-1 1 4 3 5 7 15 3 8 2 10v11l1 8 4 10 3 7 5 7 3 12 6 12 5 4 5 5 2 1v4l9 5 1 1 2-4 1 3 3 1 4 7 7 3 3 6 5 7 3 8 2 3 3 12 6 18 3 7 6 15 2 4 4 6v2l3 1v5l6 4 5 17 2 7 4 4 3 10 7 2 4 9 8 24 6 7v-3l3-3-5-13-3-4-3 2-5-8-1-13h2l-2-16-3-9 1-3 4 9v4l2 1 5 11 1 6h3l2 5 6 13 1 9 3 8 4 9 3 5 10 25v5h2l8 20 4 13 10 24 3 9 5 14 3 9 4 11 5 20v5h2l3 11 2 7 1 6h-4l-1-4h-2l-3-3-3-5-4-2-5-6-4-4-2-1v-2l-3-1-4-6-4-4-3-5-8-6-6-7-1-4-6-2-1-5h-3l-1-4-3-1-3-3-2-3-5-3v-2l-3-1-1-2-3-1v-2l-4-2-2-4-4-2-5-4-6-7v-2l-3-1-1-3-4-3v-2l-5-1v-2l-6-2-5-5v-2l-4-1v-2l-4-1-4-3v-2l-4-1v-2h-3v-3l-7-2-10-8-8-4-12-8-3-1-6-7-2-1v-2l-5-2-7-4-4-1-1-4-4-1-21-12-10-6-12-7-15-7-9-7-24-12-8-5-8-3-17-10-11-5-12-6-13-5-10-7-10-5v-2l-7-2-14-7-10-4-6-3-10-3-9-6-10-4-9-3-17-6v-2l-5-1-14-5-9-4-9-3-32-12-11-3-10-2-14-5v-2l-4 1-11-3v-2l-9-1-27-9-8-3-2-4 6-4 8-3 7-4 13-5 17-6 18-7 11-4 7-2 18-6 3-2 9-2 8-4 10-4 3-2 6-2 13-3 17-6 11-4 5-3 11-4 16-6 5-3 11-5 10-4 12-5 10-7 5-3 1-4 27-15 11-7 22-15 16-11 19-14 14-12 10-9 4-5z" fill="#164082"/>
<path transform="translate(1079,92)" d="m0 0 6 1 21 8 7 3 16 8 14 8 22 15 14 12 10 9 12 12 7 8 13 18 9 13 7 11 11 23 10 26 1 6-3 1h-10l-14 2-12 4-10 2-10-7-12-5-4-1h-16l-7 3-7 6-5 8-1 4v10l3 9 3 10-1 2h-7l-13-5-5-3-4-1h-8l-9 6-6 7-2 7v14l3 8 8 10 7 7 14 9 11 5 4 1-2 5-6 10-8 11-14 19-6 12-3 9-3 20-3 21-3 10-6 9-9 10-7 7-10 8-11 7-5 2h-9l-7-6-8-16-4-14-2-20-3-21-7-19-1-4-1-15-3-10-4-6-5-5-7-5-12-4-7-1h-30l-15-5-15-9-8-8-6-13-2-11 1-16 4-13 5-10 6-8 11-11 11-7 15-5h27l20 4 23 6 17 3 13 1h25l13-5 7-6 4-8v-18l-4-12-7-9-9-7-14-5-9-2-14-1h-56l-5-1 2-4 5-5 10-8 6-8 5-11 1-15 5-4 7-3 15-2 20-1 9-3 6-5 3-7 1-7-2-18v-16l3-10z" fill="#175DAD"/>
<path transform="translate(619,460)" d="m0 0h1v11l1 2 1 11 6 2 3 6 2 6 1 1 2-3 3-8 4-9 2-2h5l3 2 3 5v3h2l3 12 2 9 3 3 1 12 2 5 2 10 1 16 2 5-1 1 2 12 1 19 2 14 2 11 1 25 1 17 1 10 2 6 1 11 1 9 1 1 3 23 2 6 3 16 3 14 2 5v7l2 6 2 15 1 2 2 14 3 9 3 11 4 18 2 4v5h2l3 9 3 7 2 9 2 3 2 7 3 12 3 6v2h2l3 6 2 5 4 16 3 6 8 17 7 10 4 6 5 8 3 3 2 5h2l1 5h2l7 9v2l4 2 5 5v2h2l4 5 1 4 4 4v2l4 2 6 5v2l3 1 3 4v2h2l7 9 6 5 2 5 3 1v2l4 1v2l4 1 4 4v2l4 2 5 5 3 2v2h2l3 3 3 2v2h3l5 5v2l4 2 9 9 3 1v2l4 1 9 7 4 2 5 5 23 11 8 2 6 2 12 2 13 1h25l17-4 16-6 16-8 19-10 20-14 12-9 9-7 11-10 11-9 32-32 11-14 12-13 10-13 9-12 10-15 11-19 8-16 11-24 8-20 12-36 3-8 3-12 5-19 5-22 3-11 9-42 4-19 4-20 2-17 2-22 2-32 3-50 2-19 2-25 5-47 2-8 5 5 7 14v18l-3 30-4 52-1 8-2 41-4 43-3 14-3 16-8 38-5 21-4 16-7 26-5 20v7l-4 9-16 32-7 16-6 18-6 21-4 12-1 4h-2l-14 23-18 27-1 2v46l-6 11-6 9-2 2-1-38-2-6-9 6-10 10-1 2h-2v2l-8 7-18 18-8 7-14 11-12 10-16 11-23 15-16 9-23 9-9 3-10 2-5 2-20 2h-13l-21-3-30-9-15-6-19-10-16-10-22-15-12-10-11-9-13-11-15-14-11-11-2-5h-2l-6-7h-3l-1 27v101l-2 5-10-4-5-6v-149l-4-8-12-17-9-14v-2h-2l-5-16-1-10v-8l-2-6-2-4-2-15-10-30-9-19-11-18-6-10-9-19 2 8 4 17-2 4-7 2h-7l-11-6-8-7-10-14-12-21-11-18-10-17-9-24-15-42-11-39-5-21-2-22v-20l2-9 5-5 5-3 9 1 12 4 14 10 8 5 5 1 1-3v-14l1-8-3-5-1-13-3-6-4-20-2-20-2-22-1-20-2-3v-11zm65 358m1 2 1 2z" fill="#2873C0"/>
<path transform="translate(1200,1064)" d="m0 0h2l1 5v15h2l1 13v18l-1 44-2 11v12l-4 3h-4v2l-16 9-13 7h-2v2l-23 13-10 7-17 12-12 9-11 9-15 13-5 6h-2l-2 4h-2l-2 4-7 7-3 4h-2l-2 4-15 16-3 4h-2l-2 4-8 8-7 6-7 7-4-1-6-9-15-20-14-21-13-19-9-11-8-11-11-13-12-13-5-6-8-7-8-8-7-6-5-5-10-9-8-7-10-9-7-6v-2l-4-1-19-19v-2l-3-1-5-6-5-5v-2h-2v-2h-2l-9-11-2-6v-13l2-7 5 2 9 7 2 3 7 3v2l4 1 9 4 3-1-3-5v-3l6-1 4 4v2h2v2l4 1 9 7 5 4v3h2v2h2l3 3 7 3 16 9 6 4 16 8 11 7 12 3 9 3 9 2 1 3 7 2 5 1 9 2 22-1 8-2 3-1h3v2l4-3 23-6 23-8 15-8 8-4 7-4 3-3 10-5 6-4h2v-2l7-3 3-5 6-2v-2l9-5 6-7 10-7 5-3 6-5 4-2 3-3h2v-2l7-5-1 5-5 9v2l5-2 4-2v-3h2l1-4 5-5z" fill="#164082"/>
<path transform="translate(1896,1533)" d="m0 0h28l1 3-1 47-2 1-82 6-93 8-33 4-91 13-27 5-50 10-38 9-32 8-26 8-30 9-64 21-23 8-39 15-21 9-38 17-16 7-35 18-16 8-14 8-20 12-24 13-10 8h-3l1-7 12-14 16-15 9-9 11-9 16-13 11-9 12-9 17-10 8-6 20-12 25-14 13-8 28-13 16-8 21-10 22-8 8-4 25-9 58-19 25-7 39-10 43-11 55-11 35-6 67-10 45-5 86-7z" fill="#1A5FAE"/>
<path transform="translate(75,1533)" d="m0 0h18l50 2 70 5 40 4 40 5 50 7 72 12 34 7 58 14 19 5 21 5 28 9 21 6 37 14 16 7 19 7 40 20 23 11 20 12 17 10 15 9 20 13 13 9 13 10 13 11 12 9 14 11 8 8v2l4 2 8 8 9 15 3 3-1 3-5-2-9-5-9-7-18-10-23-14-27-14-22-12-19-9-33-15-26-11-25-9-24-10-28-10-35-11-36-12-37-11-73-18-48-9-47-7-50-7-35-5-39-4-150-12-6-2-1-10v-38z" fill="#164082"/>
<path transform="translate(1172,284)" d="m0 0h9l12 5 12 9 2 1 10-1 22-6h17l6 4 4 6 4 10 1 15v39l-2 20-3 19-7 27-7 19-8 19-13 23-15 22-9 11-11 13-11 11-11 9-12 10-15 10-15 9-28 14-22 8-27 7-11 2-5-1-5-5 1-9 8-16 9-17 1-5-1-3 16-8 11-8 11-9 12-12 10-15 4-9 3-12 3-30 4-13 6-11 10-13 11-16 8-14 2-6v-10l-2-4-16-7-9-4-6-4-5-4-9-11-1-1v-8l5-5 6 1 8 4 6 2h19l8-5 5-8v-9l-6-15v-7l4-7z" fill="#164082"/>
<path transform="translate(1880,1392)" d="m0 0h15l1 5v37l-3 2-45 7-84 11-48 7-38 7-63 13-37 8-69 19-27 8-13 5-48 19-21 8-14 7-20 9-24 11-16 8-35 18-19 12-21 13-11 7-18 13-14 10-13 10-10 9-14 11-12 11-11 9-9 8h-2v2l-8 7-13 12-12 11-2 3h-2l-2 4-7 8-10 8-3 1 2-5 4-7 4-5h3l1-4 11-18 10-13 13-15 26-26 2-3h2l2-4 10-9 3-3h2l2-4 9-9 8-7 16-13 10-8 36-27 23-15 17-11 29-17 16-9 38-19 19-10 18-8 21-9 23-10 35-11 29-10 28-8 52-14 40-10 42-8 37-7 25-5 67-10 44-5z" fill="#185EAE"/>
<path transform="translate(104,1393)" d="m0 0h11l42 4 39 5 47 7 34 6 73 14 51 12 29 8 31 8 32 10 33 11 23 7 27 12 17 6 29 14 22 12 14 7 21 13 14 8 24 16 13 9 21 14 4 6 10 6 16 13 13 11 10 9 8 7 17 16 38 38 7 9 3 8h4l8 10 10 14 7 12 4 6 7 15v7l-5-5-4-6-3-7-7-8-8-8-7-8-8-8-2-4-3-2v-2l-3-1-5-6-8-7-15-14-15-13-14-11-13-11-18-13-12-9-17-12-42-26-25-14-17-10-41-20-18-8-41-16-30-12-17-6-29-9-35-9-24-7-36-8-80-16-47-8-44-6-48-6-64-9-8-2-1-1v-19z" fill="#1B60AF"/>
<path transform="translate(1079,92)" d="m0 0 6 1 21 8 7 3 16 8 14 8 22 15 14 12 10 9 12 12 7 8 13 18 9 13 7 11 11 23 10 26 1 6-3 1h-10l-14 2-12 4-10 2-10-7-12-5-4-1h-16l-7 3-7 6-5 8-1 4v10l3 9 3 10-1 2h-7l-13-5-5-3-4-1h-8l-9 6-5 5-4 2h-3l-2-6-1-7v-7l1-4v-13l3-9v-18l-4-12-7-9-9-7-14-5-9-2-14-1h-56l-5-1 2-4 5-5 10-8 6-8 5-11 1-15 5-4 7-3 15-2 20-1 9-3 6-5 3-7 1-7-2-18v-16l3-10z" fill="#164082"/>
<path transform="translate(215,1475)" d="m0 0 85 8 37 5 27 5 43 9 49 11 25 7 33 10 32 8 24 9 31 11 19 8 23 11 24 11 27 15 23 13 19 13 17 11 14 10 16 13 13 10 13 11 14 12 8 7 9 8 5 6 16 14 8 10 3 4 5 3 9 9 8 10 3 7 7 4 7 10 2 6h-4l-10-7-9-8v-2l-4-2-5-4-7-4-3-5-11-8-13-12-19-14-10-9-7-6-12-7-28-19-15-10-14-8-19-11-17-8-32-16-25-11-32-13-29-11-35-11-25-9-26-8-27-7-82-17-46-8-61-7-40-4-29-3-3-2v-16z" fill="#1A5FAE"/>
<path transform="translate(1774,1474)" d="m0 0h7v49l-10 2-64 7-58 7-35 6-44 9-29 7-26 6-24 7-57 19-23 7-29 11-26 11-23 9-16 8-25 12-23 11-11 7-11 6-16 9-19 13-15 10-11 7-14 10-12 9-15 11-12 11-11 9-10 9-13 13-7 6-11 5 1-5 10-11h2l3-7 4-8 9-10 30-30 8-7 12-12 11-9 15-14 14-11 10-8 14-10 15-11 16-10 23-15 25-14 16-8 7-4 23-11 25-11 15-7 37-15 21-8 21-7 14-3 32-10 44-11 53-12 38-8 30-5 84-10z" fill="#185EAE"/>
<path transform="translate(1337,483)" d="m0 0 5 5 7 14v18l-3 30-4 52-1 8-2 41-4 43-3 14-3 16-8 38-5 21-4 16-7 26-5 20v7l-4 9-16 32-7 16-6 18-6 21-4 12-1 4h-2l-14 23-18 27-1 2v46l-6 11-6 9-2 2-1-38-2-6-9 6-10 10-1 2h-2v2l-8 7-18 18-8 7-14 11-12 10-16 11-23 15-16 9-23 9-9 3-10 2-5 2-20 2h-13l-21-3-30-9-15-6-19-10-16-10-22-15-12-10-11-9-13-11-15-14-11-11-2-5h-2l-6-7h-3l-1 27v101l-2 5-10-4-5-6v-149l-4-8-12-17-9-14v-2h-2l-5-16-1-10v-8l-2-6-2-4-2-17 5 5 7 12 4 9 10 18 6 8 9 13 7 10 6 8 11 13 10 11 9 11 9 9 9 11 8 7 4 5 11 9 13 12 9 7 9 8 11 8 9 6 21 13 17 9 15 5 15 3h33l17-3 21-7 17-8 20-11 20-14 12-9 9-7 11-10 11-9 32-32 11-14 12-13 10-13 9-12 10-15 11-19 8-16 11-24 8-20 12-36 3-8 3-12 5-19 5-22 3-11 9-42 4-19 4-20 2-17 2-22 2-32 3-50 2-19 2-25 5-47z" fill="#FDFDFD"/>
<path transform="translate(1911,1535)" d="m0 0h10v40l-4 4-7 1-23 2-28 2-25 1-21 3-38 2-30 3-19 1-7 2h-9l-5 1-12 2-10 2-19 2-10 2-26 3-11 1-10 2-2-1-9 2-9 1-8 2v-2l-8 3-9 2h-17l-1 2h-2v3l-6 1-13-3-10-1h-18l-41 4-17 3-13 2-12 3-26 6h-4v-2l11-3v-2l4-3 9-2 4-3 5-2 7-6 20-5 8-1 1-2 7-4 9-2 14-2 19-5 14-3 8-4 29-7 8-1 3-2 10-1 6-1h3l1-2 19-3 23-4 21-4 9-3 18-3 17-3 21-2 18-3 7-1h16l22-1 13-3h10l15-2h9l18-2 52-2z" fill="#164082"/>
<path transform="translate(75,1533)" d="m0 0h18l50 2 70 5 40 4 40 5 50 7 72 12 34 7 58 14 19 5 21 5 28 9 21 6 37 14 16 7 19 7 40 20 23 11 20 12 17 10 15 9 20 13 13 9 13 10 13 11 12 9 14 11 8 8v2l4 2 8 8 9 15 3 3-1 3-5-2-9-5-9-7-18-10-23-14-27-14-22-12-19-9-33-15-26-11-25-9-24-10-28-10-35-11-36-12-37-11-73-18-48-9-47-7-50-7-35-5-39-4-150-12-6-2-1-10v-38zm5 4-5 2v30h2l2 4 5 6 19 2 16 1 12 2 20 1h11l13 1 11 2 28 1 21 2 3-1v2l45 5h10l3 2 16 2 18 1 1 1 37 2 5 2 2-1 1 2 17 2 7 1 12 2 14 2 8 3 7 2h19l10 2 4-1h10l20 3 24 2 16 3h6l20 4 7 2 20 3 17 3 11 2h12l6 2 4 1h11v-2l-10-3-5-2-9-5h-2v-2l-4-2-9-2-5-2h-7v-2l-8-2v-3l-12-4-21-4-7-1v-2l-19-4-14-5-31-6-9-2-15-5-12-3-5-1-16-4-16-3-20-3-20-4-23-4-11-3-33-5-12-3-17-1-17-3-18-1-13-2-21-2h-9l-39-3-34-2-30-2z" fill="#195FAE"/>
<path transform="translate(935,1430)" d="m0 0 3 2v2l11-1 3 1v-2l4 1 9 6 9 4-1 3h18l2 1v3h22l2-4h6l9-3 12-3h3l1 2 4-2 4-1-1 6-4 7-4-1-1 5h-2v2l4 1v7l2 3 2-1-2 10-5 24-3 15-5 17-9 28-3 12-7 25-5 18-3 12-5 12-3 10-5 8h-2l-5-17-2-10-2-3-3-12-5-12-8-28-5-21-5-17-7-22-4-14-4-10-4-23-3-10-1-12-3-8v-6h2z" fill="#164082"/>
<path transform="translate(1879,1396)" d="m0 0h10l2 2 2 9-1 21-2 7-2 2-13 2h-19l-7 1-34 4-12 1-12 2-39 4-13 2-17 2-8 2-6 2-32 6-14 2-23 4-13 2-10 2-9 3-27 6-16 3-16 5h-4v2l-5 1-4 1-26 6-11-2-2-1v-3l6-5v-2l6-4 1-2 12-6h2v-3l5-5 3-2 8-1 1-2 10-2 5-4 7 1v-3l21-6 10-5 8-3 9-1v-2h13l12-3 10-2 7-2 9-2 12-3 18-3 12-3 7-1 6-2 8-1 1-1 11-1 10-3 11-1 15-3 36-4 25-3 27-3z" fill="#164082"/>
<path transform="translate(112,1398)" d="m0 0 9 1 19 1 25 3 23 2 18 2 3 1 17 2 22 3 10 3 8 1 13 3 23 4 1 1 30 5 14 3 12 2 16 3 14 2 8 3 9 2 1 2 22 6 16 4 3 1v2l11 1 6 2 14 4 1 2 9 2 5 5 7 3 6 1 9 3v2l3 1-1 5 2 4-10 2-24-1-16-3-11-1-5-2v-2h-7l-8-2v-2l-5 1-2-2h-8l-15-3-7-3-9-2-11-2-7-1v-2h-9l-23-3-19-2-13-3-12-2-4-2-16-2-15-3-9-1-6-2-27-2-9-2-68-6-17-3-10-1-7-3-3-2-1-6v-22l1-3z" fill="#164082"/>
<path transform="translate(1403,589)" d="m0 0 7 1 5 5 4 8v7l-2 14-2 2-2 15-5 19-2 9-1 1-1 9-4 11-2 9-5 13-6 16h-2v4h-2l1 3h-2l-3 9-2 10-5 16-7 17h-2l-1 5-4 4-4 7-9 15-7 12-9 10-14 9-1 1-7-1-1-4 5-23 4-16h2l2-11 5-21 4-17 3-16 1-1 5-40 2-11 1-4 4-44 2-23 2-1 2-4 6 2 8-1 5-3 7-4 5-4h2l2-6 7-6z" fill="#164082"/>
<path transform="translate(219,1482)" d="m0 0h31l25 3 21 2 5 1 25 2 22 3 11 1 3 1v2l16 2 7 3 25 5 23 6 28 6 18 4 7 4 17 5 21 5v2l6 1 21 6 9 3 16 4 7 2-3 1 1 6-9 3-6 4-5 1-6-2h-15l-5-2-10-2-25-6-15-2-8-3-18-4-16-1-2-1h-7l-8-2h-8l-9-3h-9l-30-6-15-2-13-2-4-2h-8l-27-3-6-2-17-1-6-2-5 1-11-2-19 1h-11l-6-1-4-7-1-19 1-12z" fill="#164082"/>
<path transform="translate(1763,1479)" d="m0 0h13l1 1v37l-2 5-7 2-25 1-11-1-9 1-13 1-10 1-33 4-25 4-1 1-10 1-10 3-15 2-4 1-10 2-13 3-9 1-14 3-9 2-7 1-10 2-4-1v2l-9 1-8 3-9 3-5-2v2l-9-1-3-1-4 6-3 3-2-2 1-5h-3l1-3h3v-3l4-3 1-7 4-4h2l2-4 2-5h4l1-2h3l4-3 14-3 6-3 3-2 18-4 14-3 7-1 7-3 10-2 7-2 33-8 11-1 1-3 7-2 24-2 16-3 22-2 10-2 21-2 13-2 13-1z" fill="#164082"/>
<path transform="translate(587,593)" d="m0 0h7l5 3 7 3 10 7 11 5 11 1 4 6v2l4 2 3 9 1 5v33l3 23 3 14 2 6 2 11 2 5 2 15 2 5 3 15 7 27 3 11 3 12 1 12 2 21-7 1v-2l-5-2-9-3-6-11-5-5-5-11-4-9-1-4-3-13-3-12-4-9v-5l-2-1-2-5-4-9-12-22-4-7-1-8h-2l-2-9-1-17-2-12-1-9v-3-4h2l-3-9-1-10-3-10-6-5-4-4-4-1-2-3v-13l4-6z" fill="#164082"/>
<path transform="translate(730,311)" d="m0 0h12l13 4 8 5 4 5 1 38 4 16 3 8 7 10 5 5 11 9 15 15 4 9v14l-6 19-4 17v15l1 4v12l-4 8-3 2h-8l-6-5-12-16-14-22-10-21-5-11-6-17-4-14-5-22-2-13-2-29v-21l2-23z" fill="#175DAD"/>
<path transform="translate(1279,929)" d="m0 0h2v23l-1 15 2 20v23l-1 13h-2l-2 23-1 12 1 9-2 5v8l-1 8v14l-5 21-5 12-6 12-8 9-5 5-11 9-8 1-2-2v-28l1-51v-72l3-7 3-6 5-5 12-17 6-9 6-12h2l2-7 2-1 3-9 3-7h2l1-5z" fill="#164082"/>
<path transform="translate(663,270)" d="m0 0h3v10l-2 31v35l2 36 4 27 7 34 10 31 3 7 3 10 3 7 2 8v9l-3 8-2 7-4 4-4-1-3-10-2-4-1-5-4-12v-5h-2l-6-15-6-9v-3l-3-1-9-9-9-3-11-2-2-1-1-9v-4-17l1-17v-16l3-31 2-16 1-4 3-14 1-7 1-3v-3h2l2-6 3-6 3-5h2l1-5 1-3 3-3 2-5h2l3-9z" fill="#164082"/>
<path transform="translate(1365,444)" d="m0 0h1l2 10 3 4 3 6-1 2-3-3v25l-1 5-2 27-3 21-6 45-1 25 5-1 13-11 5-4 12-6 7-3h11l5 3 4 5 2 6v17l-4 32-5 23-7 24-18 45-11 32-6 12-10 15-13 21-11 16-6 7-11 9-2 2h-9l-8-3-1-1 1-10 5-19 8-30 2-9 9-39 4-20 5-24 3-28 2-21 2-41 2-20 3-40 3-30v-18l-8-16-2-2-2 7-5 47-3 38-1 9-4 58-2 36-2 12-2 18-3 14-4 19-7 32-4 18-5 19-5 22-3 9-2 9-14 41-4 10-8 19-11 23-10 19-14 22-9 11-8 11-9 10-11 13-9 11-31 31-2-1 27-27 7-8 11-13 7-8 8-9 8-11 14-19 13-22 8-16 12-25 6-17 9-24 5-17 4-11 3-12 6-26 4-16 6-28 5-18 4-20 1-3 2-15 2-14 2-15 3-53 3-44 4-44 2-28v-15l4-13 5-6 4-1 7-8h3l1-3 6-4 3-4zm38 145-11 2-8 7-1 5-4 2-5 3-9 5-4 2h-5l-6-2-2 4-2 1-4 43-2 27-2 5-6 47-2 6-6 28-6 24-1 8h-2l-4 16-5 24 1 3 7 1 10-7 8-6 8-10 9-16 5-8 6-10 3-3v-3h2l8-19 5-16 1-8 3-9 2-1-1-2h2v-4h2l4-12 4-9 3-8 2-10 4-10 1-9 3-8 2-10 4-16 1-10 2-2 2-17-1-7-5-8-7-3z" fill="#185EAD"/>
<path transform="translate(708,909)" d="m0 0 2 2 4 9 3 12 5 9 3 8 4 9 2 4v3h2l12 21 7 11 8 11 3 8 1 9v31l1 11v46l-2 26-1 2h-2l-1 2-23-23-9-15-3-9-4-14-2-8v-9l-2-6v-10l1-10-2-23-1-22-2-6-1-4-1-20-1-3 2-6h-2v-3l-3-1v-12l-1-9-1-4 1-4-2-1 1-10z" fill="#164082"/>
<path transform="translate(1079,92)" d="m0 0 6 1 21 8 7 3 16 8 14 8 22 15 14 12 10 9 12 12 7 8 13 18 9 13 7 11 11 23 10 26 1 6-3 1h-10l-14 2-12 4-10 2-10-7-12-5-4-1h-16l-7 3-7 6-5 8-1 4v10l3 9 3 10-1 2h-7l-13-5 2-6 4-1 1-6 5-1 1-15 6-12 7-6 8-3h24l3 2 2-1v2l8 2 6 2 7 1 25-3 10-1-3-8-1-5-3-12-5-10-5-9-4-8-10-16-6-9-9-11-6-7v-2h-2l-5-6-2-1v-3l-4-2-5-5-10-8v-2h-2l-5-6-6-3-6-5-5-3-8-6-10-5-11-6-12-6-10-2-8-4-5-1h-5l-1 11-2 10 1 7 1 4v14l-4 9h-2l-2 4-3 4 1 7 4 12 3 14 6 23 6 19 6 6v6l-4-4-7-8-9-5-11-4-9-2-14-1h-56l-5-1 2-4 5-5 10-8 6-8 5-11 1-15 5-4 7-3 15-2 20-1 9-3 6-5 3-7 1-7-2-18v-16l3-10z" fill="#175DAD"/>
<path transform="translate(538,1219)" d="m0 0 2 1-2 4-13 8-7 4-11 4-12 5-8 4-9 4-15 5-16 8-10 3-11 4-13 3-9 4-11 5-11 4-6 2-14 5-7 3-9 2-8 3-18 7-10 4-10 3-16 7-5 3-5 2-4 2 2 4 9 2 9 4 21 6 4 1v2l9 1 6 1v2l5 1 9 3 10 2 16 5 21 8 21 7 9 4 13 5v2l6 1 13 5 17 6 9 6 11 3 5 3 10 4 12 6 9 4v2l6 2 8 5 9 5 22 10 16 8 12 7 9 4 15 8 16 8 7 5v2l7 2 10 5 15 9 11 6 10 6 8 5 3 1 2 3 5 2 8 5 2 1v2l4 2 5 4 8 6 7 5 8 4 11 8 5 2v3h3l1 2 3 1 5 5 3 1 1 2 3 1 5 5v2l4 1 2 1v2l5 1 5 5 1 3 5 5 6 7 6 4 4 5 2 1v2l4 1 5 6 6 3 3 5 3 3v2h3l2 4 5 3 6 9 7 6 5 4 1 3 4 4 4 6 2 1v2l5 2 2 2 1 4 3 1 1 2 5 3 1 4 3 1v2h2l2 4h2l-1-8-3-8-1-8h-2l-7-28-5-12-3-10-4-12-1-5-1-6-10-26-9-25-10-24-12-35-21-49-14-35-1-4 3 3 12 28 10 25 9 20 8 21 6 19 4 10 10 23 11 31 6 16 16 42 4 12 4 16 7 18 3 9 8 23 9 28 1 7-3 1-5-4-8-14-10-16-7-9-13-18-8-12-9-10-7-8-1-3-4-2-6-9-9-11-11-12-11-11-8-7-12-11-8-7-13-11-14-11-15-12-17-12-12-8-11-9-20-12-24-16-17-10-22-13-13-8-24-11-16-9-22-12-20-9-32-17-13-6-26-11-23-10-39-15-33-13-61-20-53-16-19-5 2-4 23-11 20-8 26-10 29-11 36-12 31-12 44-16 33-14 24-11z" fill="#195EAE"/>
<path transform="translate(647,482)" d="m0 0 5 2 3 7 2 8 4 44 3 15 2 17 2 7 3 19 2 44 3 31 3 12 2 17 2 11 2 12 4 20 5 28 5 22 19 76v5l-3-4-10-17-9-15-9-19-1-7-7-29-4-16-5-21-4-25-5-25-2-19-2-10-2-39-3-37-1-10-2-7-3-19-5-35v-23l2-12 3-7z" fill="#FEFEFE"/>
<path transform="translate(637,543)" d="m0 0 2 1 1 11 5 8 2 10v8l3 9 4 54 1 27 2 9 1 16 6 28 4 20 2 12 2 5 2 11 6 22 3 14 1 6-3-1-3-12-3-11-8-30-3-16-1-1-2-15-3-8-7-35-2-20v-29l-1-7-4-8-3-3-3-5-11-1-14-7-10-7-5-2-4-2h-11l-2 5-1 5v9l1 3 6 1 2 4 3 1 4 4 4 16 1 7 1 6h-2l2 6-1 2v5l1 5 2 11 1 16 1 9h2l2 6 2 5 4 8 7 12 5 10 3 7 3 9 2 3 3 9 4 18 2 6 3 10 3 5 4 8 6 7 3 6v2h5l10 6h6l-2-9-1-17v-5l2 2 7 22 2 12-5 3-4 1h-7l-11-6-8-7-10-14-12-21-11-18-10-17-9-24-15-42-11-39-5-21-2-22v-20l2-9 5-5 5-3 9 1 12 4 14 10 8 5 5 1 4-2 2-12 1-10-3-12-2-3v-20-2z" fill="#185EAD"/>
<path transform="translate(1221,674)" d="m0 0h8l-2 10-7 9-7 8-11 9-15 8-13 5-16 2h-26l-36-4-12-1v-1l-7-1h-7v2l-7 1 2-6 7-11 8-10 10-8 11-5 10-3h22l27 3h19l16-2 21-4z" fill="#164082"/>
<path transform="translate(1322,1130)" d="m0 0 4 2 10 9 14 11 14 12 19 13 15 11 22 14 28 16 27 14 30 14 39 15 20 7 28 11 36 12 31 11 25 9 24 9 20 9 10 6-1 2-28 9-29 9-36 12-43 15-72 28-25 11-24 10-23 11-19 10-23 11-5 2 2-4 12-7 10-4 13-6 11-6 18-8 5-4 28-11 9-4 6-4 19-7h5v-2l8-4 11-4 18-6 24-10 22-7 7-2 2-2 16-4 9-3 13-4 7-3 36-12 4-2 1-3-7-1-8-4-18-7-2-2-17-5-10-4-11-4v-2l-3 1-4-3-12-3-4-2-12-3-4-2-12-3-5-3-9-3-10-4-13-5-9-3-14-4-10-4-9-4-6-3-10-3-8-4-7-2-26-13-9-6-4-3-9-4-14-6-7-4-6-4-11-6-12-7-6-4-1-2-7-3-9-6-1-2-3-1-5-5-4-2v-2l-6-1v-2h-2v-2l-5 1-5-3v10l2 5 3 9 2 7v3h3l6 12v4l2 1 3 13 3 5 4 3 4 10 4 9 4 4 3 7 6 10 2 6h2l4 10 7 11v3h2l5 7 3 8 4 11 1 7-4 9-8 5h-2v2l-6 1v2l-10 3-5 5-4 3h-2l-1 2-5 2-3 4-8 4h-3v2l-5 2-5 5-4 2h-3v3h-3v2l-4 3-5 2-5 3-3 3h-4v2l-10 6-7 1 1-5h2l2-4 8-8h2l2-4 6-4 10-10 3-1 2-4 12-7 4-2 2-4 4-3h2l2-4 8-8 10-7 8-6 2 1-13 12-12 9h-2v2h-2v2h-2v2h-2v2l-8 7-16 13-8 7-9 8-3 3 24-15 15-11 25-15 19-12 17-10-1-5-13-25-12-21-15-25-7-14-10-17-6-13-6-17-11-26-7-21-5-19z" fill="#1E63B1"/>
<path transform="translate(758,668)" d="m0 0h7l13 5 14 6 16 4 15 2 16-2 17-1 3-1 20-1v2l9 1 2 5h2l4 7v6l-3 7-2 7-2 3h-2v2l-4 1-27 2-32 1-18-3-14-7-11-9v-2l-4-2-2-2-4-1-5-9v-2h-2l-5-8-2-8z" fill="#164082"/>
<path transform="translate(1097,337)" d="m0 0h1l2 13 7 11 10 10 14 9 11 5 4 1-2 5-6 10-8 11-14 19-6 12-3 9-3 20-3 21-3 10-6 9-4 5-6 1-6 5-3 5-3 1 1-11 10-41 5-29 4-34 3-39 1-22 1-7h1z" fill="#164183"/>
<path transform="translate(84,1626)" d="m0 0 23 1 49 4 138 16 49 7 53 9 56 11 42 9 31 8 33 7 34 10 66 22 30 13 28 10 40 19 24 11 17 9 14 8 19 10 24 15 25 16 10 8 6 4 13 8 17 14 7 6 17 10 16 7 18 5 22 1 11-2 15-4 17-7 19-11 5-3 7-6 13-10 33-22 14-9 32-20 21-11h3l-1 4-16 8-3 3-12 5-9 6-8 6-11 6-9 6-7 4-5 4-7 4-10 7-5 4h-2v2l-18 14h-2v2l-4 1v2l-11 6-16 7-16 5-8 2-13 1h-19l-21-6-16-7-10-6-14-10-9-8-13-9-8-5-5-5-8-6-10-7-20-12v-2l-4-1-10-6-16-8-13-8-11-6-12-7-13-5-8-4-7-3-8-5-9-4-12-5-10-5-10-4-9-3-6-3-7-3-6-4-13-4-9-3-17-7-23-6-10-4-2-1v-2l-11-2-18-5-13-3-16-4-10-3-35-7-18-4-31-6-10-3-15-2-11-3-22-5-7-2-12-2-17-3-32-3-4-1-14-1-16-2-10-2-26-3-25-4h-9l-12-3-4-2-24-2h-7l-6-2-36-3-28-1-1-1-11-1-9-2z" fill="#1E62B0"/>
<path transform="translate(1973,1621)" d="m0 0 3 1v53l-5 2-81 7-89 9-75 8-46 6-40 7-66 12-43 9-35 9-42 13-35 10-69 24-24 9-24 11-20 8-71 34-24 14-24 13-26 17-10 6v-3l4-3h2l1-3 9-5 15-9 10-7 7-4 11-6 8-4 1-2 10-3 4-4h2l1-3h3v-2l11-4 3-2h3v-2l8-4 8-3h3v-2l11-5 3-1 1-2 6-2 1-2 14-5 8-4 5-1 1-2 9-3 7-3 12-4 9-4 8-4 17-6h6v-2l10-3 1-1h6l1-3 5 1v-2l13-4 1-1 9-2 11-3 2-2 12-3h4v-2l14-3 8-3 5-1 13-4 5-2 9-2 13-3 4-2 11-2 7-2 5-1h6v-2l12-2 14-4 11-1 7-2 15-2h6l5-2 11-1 6-2 9-2 6-1 2 1 1-2h3l20-3 7-2 22-2 5-1 23-3 35-4 6 1v-2l8-1 19-1h14l25-2 8-1 23-2 17-2 9-2h12l23-2 24-3 12-1 6-3h3v-42l-5-2-16 1-3 1-44 1-16 1-2-1v2h-31v-1l49-4 59-4z" fill="#1F64B1"/>
<path transform="translate(129,1684)" d="m0 0 23 1 13 2 42 1 11 2 9 1 26 1v2h9l5 1 24 1 9 3 38 5 9 1 6 2 17 1 6 3 21 3 6 2h6l5 2 20 2v2l4-1 10 2 9 1 6 2 15 3 9 3 7 1v2h7l11 4 10 1 12 4v2l5-1 9 5 21 6 7 1 10 5 5 2 4 1v2l11 1 5 3 8 2 8 3 10 3 2 2 7 3 10 3 11 3 10 5 5 1 3 3 10 2 12 6 10 3 9 4 12 5 4 2v2l5 1 4 1v2l7 1 17 9 9 6 9 4 9 5 4 2v2l5 1v2l4 1 3 1v2l5 2 9 5 5 3 6 4 2 2 5 2v2l5 1v2l6 2 3 3 3 1v2l4 1 5 4 3 1 7 7 5 2 5 7 2 1v2l5 2 4 5v2l4 1 7 4 1 3 4 1 4 3 3 1v2l6 2 9 4 5 3 10 3 5 2 9 1 1 3 3 1-8-1-21-5-12-5-10-6-16-12-14-12-12-9-11-9-17-11-14-10-10-6-26-15-19-11-29-14-16-8-20-9-24-10-18-8-12-5-29-10-47-17-25-8-32-9-25-8-31-8-39-8-82-15-46-7-51-6-76-8-47-5-11-1z" fill="#1F64B1"/>
<path transform="translate(837,133)" d="m0 0 3 1 1 2 2 16 1 7v15l-4 10-7 7-15 8-16 8-11 7-15 15-13 10-9 2-3-3 9-17 9-15 8-12 12-15 7-9h2l2-4 13-13 8-7 10-9z" fill="#175DAD"/>
<path transform="translate(538,1219)" d="m0 0 2 1-2 4-13 8-7 4-11 4-12 5-8 4-9 4-15 5-16 8-10 3-11 4-13 3-9 4-11 5-11 4-6 2-14 5-7 3-9 2-8 3-18 7-10 4-10 3-16 7-5 3-5 2-4 2 2 4 9 2 9 4 21 6 4 1v2l9 1 6 1v2l5 1 9 3 10 2 16 5 21 8 21 7 9 4 13 5v2l6 1 13 5 17 6 9 6 11 3 5 3 10 4 12 6 9 4v2l6 2 8 5 9 5 22 10 16 8 12 7 9 4 15 8 16 8 7 5 1 4-12-6-15-7-17-9-23-13-17-8-19-9-22-12-15-7-26-11-23-10-39-15-33-13-61-20-53-16-19-5 2-4 23-11 20-8 26-10 29-11 36-12 31-12 44-16 33-14 24-11z" fill="#2266B2"/>
<path transform="translate(746,1683)" d="m0 0 5 2 17 10 15 9 20 13 13 9 13 10 13 11 12 9 14 11 8 8v2l4 2 8 8 9 15 3 3-1 3-5-2-9-5-9-7-18-10-23-14-27-14-22-12-19-9-31-14 4-2 7 2 1 2 2-2 5 3 7 1 2 2 9 1 6 5 6-3 11 1 8 1 4 3 5 1-1-6-2-4-8-4v-2l-8-4v-2l-5-2-12-8v-2l-5-1-5-4-7-3-10-7-3-1z" fill="#2E77C2"/>
<path transform="translate(754,1602)" d="m0 0 10 5 17 14 13 11 10 9 8 7 17 16 38 38 7 9 3 8h4l8 10 10 14 7 12 4 6 7 15v7l-5-5-4-6-3-7-7-8-8-8-7-8-8-8-2-4-3-2v-2l-3-1-5-6-8-7-15-14-15-13-14-11-13-11-18-13-12-9-3-3h4l7 4 4 2v2l3-1 7 3-1-4v-2l-1-4-1-5-3-1-2-4-2-1-1-3-2 1-2-5-4-1-16-14z" fill="#2B75C1"/>
<path transform="translate(1340,1586)" d="m0 0 2 1-3 3-11 6-12 6-7 3-5 1-2 4-19 10-5 2v2l-7 5-12 6-1 4h-3l-1 3-8 5-6 5h-2v3l-7 3-8 5-3 6-6 3h-2l-1 3h-3v6l-3 1v2h-2l-2 4h-2l-1 5h-3v2l-4 2-1 2-4 2-1 4-4-1v2h-2v2l-4 4-1 2h-3v2h8v3l-18 13-12 9-11 9-12 11-10 8-17 17-7 6-11 5 1-5 10-11h2l3-7 4-8 9-10 30-30 8-7 12-12 11-9 15-14 14-11 10-8 14-10 15-11 16-10 23-15 25-14 16-8 7-4z" fill="#2D77C1"/>
<path transform="translate(746,1636)" d="m0 0 12 7 16 13 17 13 11 9 14 12 13 11 11 10 5 6 16 14 8 10 3 4 5 3 9 9 8 10 3 7 7 4 7 10 2 6h-4l-10-7-9-8v-2l-4-2-5-4-7-4-3-5-11-8-13-12-19-14-6-5-2-4-3-7-3-3-7-2-5-2 1-5-3-1-4-5-12-8-2-9v-3l-5-2-4-1-2-8-5-7-5-3-7-8-5-4-3-3z" fill="#2B76C1"/>
<path transform="translate(1297,1562)" d="m0 0 2 1-4 5-8 4h-2v2l-3 1-2-2zm-19 12 2 1-1 3-9 6h-3v2h-2l-2 4-3 1-1 3-6 2h-4l-1 4-6 2v2h-2l-2 5-5 5v2h-2l-1 2h-2l-1 2-3-1-1 4-2 4h-5l-9 6-3 4-3 1-1 3-3 1-1 6-5 2-4 4h-3v5l-3 1-6 13 2 1 7-2 1-3 7-4 3 1-10 9-14 11-12 11-11 9-9 8h-2v2l-8 7-13 12-12 11-2 3h-2l-2 4-7 8-10 8-3 1 2-5 4-7 4-5h3l1-4 11-18 10-13 13-15 26-26 2-3h2l2-4 10-9 3-3h2l2-4 9-9 8-7 16-13 10-8 36-27 23-15z" fill="#3079C2"/>
<path transform="translate(955,83)" d="m0 0 3 3v17l-3 6-8 5-16 7-20 11-8 7-6 9-1 3v7l5 6 8 2-2 2-9-2-4-5-1-4v-8l3-7 7-8 12-9 5-4 12-5 10-5 5-4 3-7-1-7 1-2-2-1h-9l-17 4-7 3-9 3-21 9-5 2-3 1-1 3-12 6-1 9 1 9 1 31-1 16-3 4-4 10-5 5h-2l-1 3-11 7-5 2-9 4h-3l-1 2-5 2-1 2-8 4-7 6-7 8-18 13-11 5-6 2-11 1v2l-3 3-1 9 1 7 1 3 8 1 13 4 1 3 5 1 3 2v2l4 1 6 8 3 6 2 9v34l1 11 4 2 4 5v3l5 2 6 9 6 4v2l4 2 4 3v3l3 1v2l3 1 4 9 1 3 2 2 1 6v18l-2 9-4 11-4 15-1 39-4 10-2 4-2 1v10l-2 3-7-6 2-4 5-4 6-9 2-6 1-39 5-19 4-12 1-7v-9l-5-13-7-11-13-13-8-7-10-10-5-9-2-19v-29l-5-12-6-7-8-5-16-6-12-2-2-1v-10l5-16 4-6 16-1 11-5 14-10 15-14 7-6 6-4 13-5 14-8 9-7 9-12 2-4 1-8v-19l-2-18-3-17 5-5 17-10 21-9 8-3 15-5 14-4z" fill="#2773C0"/>
<path transform="translate(75,1533)" d="m0 0h18l50 2 70 5 40 4 40 5 50 7 72 12 34 7 58 14 19 5 21 5 28 9 21 6 14 5-4 1-15-4-16-2-11-2-5-2v-2l-9-1-16-4-8-3-31-6-9-2-15-5-12-3-5-1-16-4-16-3-20-3-20-4-23-4-11-3-33-5-12-3-17-1-17-3-18-1-13-2-21-2h-9l-39-3-34-2-30-2h-25l-4 1-1 33h-1v-38z" fill="#2065B2"/>
<path transform="translate(1337,481)" d="m0 0 3 1 10 13 2 4 1 7v20l-1 4-3 42-2 22-3 16-3 42-4 40-4 30-3 12-3 17-8 32-2 9-6 22-5 15-3 16v8l-4-2 1-10 5-19 8-30 2-9 9-39 4-20 5-24 3-28 2-21 2-41 2-20 3-40 3-30v-18l-8-16-2-2-2 7-5 47-3 38-1 9-4 58-2 36-2 12-2 18-3 14-4 19-7 32-4 18-5 19-5 22-3 9-2 9-14 41-4 10-8 19-11 23-10 19-14 22-9 11-8 11-9 10-11 13-9 11-31 31-2-1 27-27 7-8 11-13 7-8 8-9 8-11 14-19 13-22 8-16 12-25 6-17 9-24 5-17 4-11 3-12 6-26 4-16 6-28 5-18 4-20 1-3 2-15 2-14 2-15 3-53 3-44 4-44 3-36 5-18z" fill="#2773C0"/>
<path transform="translate(1271,1715)" d="m0 0m-1 1 1 2-29 13-21 9-37 19-16 8-14 8-20 12-24 13-10 8h-3l1-7 12-14 16-15 9-9 11-9 16-13 11-9 12-9 10-6h2l-1 5-4 5 11 1 9-1-2 4-5 2-8 3-2 1v2l-5 1-9 4-1 4h-3l-1 4h2l1 2 2-2 10-1 1-3 6-1 1-2h3l8-4 6-1 5-5 18-6h2v-2l15-5 10-5z" fill="#2D76C1"/>
<path transform="translate(987,56)" d="m0 0 7 1 9 2 6 2 37 2 23 4 17 4 13 6 17 6 16 8 22 12 14 10 11 8 13 11 8 8 2 1v2l4 2 4 5 12 12 11 15 8 11 7 11 11 19 8 17 7 19 5 16 3 7 2 12 2 8 2 19v60l-2 24-4 18-2 7h-1l1-8 4-20 2-24v-48l-2-22-6-27-6-20-8-20-13-27-8-13-12-17-7-9-12-14-12-13-10-9-11-9-16-12-10-7-11-6-10-6-29-13-21-7-11-3-22-5-9-1-23-1h-50l-20 2-25 5-25 9-14 5-11 6-20 10-9 6-11 7-8 6-10 8-10 9-12 11-15 16-14 19-12 18-10 18-11 24-8 23-2-1-2 14h-1v-10l3-12 7-14 6-18 11-20 10-16 10-15 1-4h2l2-4 4-4h2l1-4 6-7 3-3h2v-2h2v-2h2v-2h2l2-4h2l1-3 7-5 3-4h2l1-3 14-9 6-5 5-4 12-6 15-10 18-7 10-6 17-5 15-4 10-2 4-2 15-1 13-3 21-2z" fill="#2773C0"/>
<path transform="translate(1172,284)" d="m0 0h9l12 5 12 9 2 1 10-1 22-6h17l6 4 4 6 4 10 1 15v39l-2 20-3 19-7 27-7 19-8 19-13 23-15 22-9 11-11 13-11 11-11 9-12 10-5 2 5-5 4-2v-3h3l2-4 3-4h3v-2l8-7 5-5h2l2-4 4-6h2l2-4 9-9 3-6 6-8 4-7 6-6 3-7 2-4 8-17h2l3-12h2l1-8 2-8 2-9 3-12 2-4 2 1v-19l1-11 3-14 1-22-2-22-2-9-2-10-2-5h-23l-9 2-6 2-7 1h-11l-13-8h-11l-3-1-4 6 1 7h2v17l-2 6-4 5-4 3-4 1-17 1-2 1-1 5 6 2 3 5-1 2h-4l-1 2-5-1-7-2v3l-4-2-6-4-7-8v-8l5-5 6 1 8 4 6 2h19l8-5 5-8v-9l-6-15v-7l4-7z" fill="#175DAD"/>
<path transform="translate(943,590)" d="m0 0 21 1 17 5 19 10 10 8 8 6-1 2h-38l-26-3-23-5-17-5-14-5 1-3 14-6 17-4z" fill="#175EAE"/>
<path transform="translate(1399,586)" d="m0 0h11l5 3 4 5 2 6v17l-4 32-5 23-7 24-18 45-11 32-6 12-10 15-13 21-11 16-6 7-11 9-2 2h-9l-5-2-1-9 4-19 6-17 4-16 2-9 7-30 2-5 3-18 3-13 2-16 3-1-5 40-2 6-6 28-8 32h-2v6l-5 18-3 16v3h7l10-7 8-6 9-12 6-12 3-4 3-5 7-11h2l1-5h2l1-5 6-14 5-16 1-8 5-10v-2h2v-4h2l1-5 3-10 5-12 2-7 1-6h2l2-9 1-9 3-8 2-10 4-16 1-10 2-2 2-17-1-7-4-6v-2l-10-2h-8z" fill="#1C61AF"/>
<path transform="translate(84,1626)" d="m0 0 23 1 49 4 138 16 49 7 53 9 56 11 42 9 31 8 33 7 34 10 66 22 18 8 1 2-7-1-10-4-12-4-9-4-23-6-10-4-2-1v-2l-11-2-18-5-13-3-16-4-10-3-35-7-18-4-31-6-10-3-15-2-11-3-22-5-7-2-12-2-17-3-32-3-4-1-14-1-16-2-10-2-26-3-25-4h-9l-12-3-4-2-24-2h-7l-6-2-36-3-28-1-1-1-11-1-9-2z" fill="#2266B2"/>
<path transform="translate(1069,66)" d="m0 0 9 1 24 7 9 3v2l5 2 14 6 9 3 8 7 8 4 8 5 11 8 7 4 2 4 3-1 5 4 4 5 7 6 7 8 10 10 4 5 5 4 6 11 4 5 4 4 3 5 3 6 8 13v3h2l8 16 10 25 2 2 3 13 2 3 3 19 1 4 3 1 1 9-1 3v8l3 18-1 8v21l-1 9v6l-1 1-2 26-4 23-3 11h-3l-5 15-4 13-3 9-3 1-3 8-2 2-4 11-3 5-2 4h-2l-5 10h-2v2h-2l-2 5-3 6-6 5-6 10h-2l-2 4-5 4-9 11-9 7-5 5h-2l-1 3-11 7-3 5-6 2-9 6-5 3-5 5-6 2-3 2-4-1 13-8 17-11 16-12 14-12 10-9 8-9 7-8 9-11 13-18 12-21 11-22 9-24 5-17h2l2-11 3-14 2-24v-60l-3-24-2-7-2-11-3-7-4-13-8-22-8-16-10-17-14-21-8-10-7-9-6-7-5-5-5-4v-2l-4-2-10-10-14-11-16-11-13-8-16-9-18-8-16-6-9-4-17-4z" fill="#175DAD"/>
<path transform="translate(730,311)" d="m0 0h12l13 4 8 5 4 5 1 38 4 16 3 8 7 10 5 5 11 9 15 15 4 9v14l-6 19-4 17v15l1 4v12l-4 8-3 2h-8l-6-5-12-16-14-22-10-21-5-11-6-17-4-14-5-22-2-13-2-29v-21l3 3 2 5v27l3 14 1 12v8l2 10 1 9h2l1 9 1 2 2-2 2 7 2 5 1 1 1 9 4 10v2h2l1 4 5 4 2 6 3 6v2h2v3l4 2 7 12 4 2 4 7 4 5 5-5 1-4 3-22 1-8 3-1 3-15 1-8 1-12-1-13-5-8-4-3v-2l-4-2-6-7-8-7-7-7-6-9-6-22-2-39h-2v-2h-2v-2h-7l-10-2h-2l-1 3-7 1-2 1v-12z" fill="#2773C0"/>
<path transform="translate(990,666)" d="m0 0h7v147l-1 69-1 3h-2l-1-4-3-1v-37l-1-34v-19l-1-29v-69l2-16z" fill="#2773C0"/>
<path transform="translate(1631,1658)" d="m0 0h5l-2 2-9 3-15 2-19 5-14 3-17 4-23 5-21 4-6 2h-10l-1 2-9 2-14 4-18 3-18 6-5 2-20 5-20 6-4 2-16 6-13 4-20 7-19 7-10 5-12 5-11 4-8 4-12 5-10 4-13 6h-2v2l-9 5-6 1v2l-8 2-8 4-11 3-2-1 18-10 33-15 23-11 19-8 25-9 19-8 24-9 32-10 38-13 25-7 16-3 56-14 42-9 42-8z" fill="#1F64B1"/>
<path transform="translate(1293,875)" d="m0 0h1l-1 19-8 79-2 20h-1l-3-28 1-13v-12l1-11-5 2-2 7h-2l-3 9-3 8h-2l-1 5-1 2h-2l-1 5-8 13-12 17-5 7-7 5-3 6v50l-1 13-1 85-2-2v-22l1-75-1-48 10-16 7-10 16-26 2-2 1 1 4-8 13-33 7-21 8-18z" fill="#1C61AF"/>
<path transform="translate(1856,1438)" d="m0 0h13l-2 2-48 7-77 10-49 8-54 11-38 8-30 7-44 12h-4v-2l10-4 3-3h8v-2l18-5 12-3 29-6 7-2h5l1-2 14-3 27-4 9-2 21-3 24-5 7-2 19-3 44-5 19-2 3-1 31-3 19-2z" fill="#1D62B0"/>
<path transform="translate(744,979)" d="m0 0h2l14 22 10 14 2 5v149l4 5 10 4 1-4v-101l1-27 2-2 8 7v2h2l6 8 16 16 8 7 13 11 16 13 12 9 12 8 13 8 15 9 19 9 22 7 11 3 14 3v1l-13-1-10-3-24-7-21-10-20-12-11-7-10-7-9-7-14-11-13-11-11-9-8-7v-2l-4-2-2-4h-2l-9-11-3-3-3-1 1 4-1 29v15l1 14v68l-2 2h-7l-9-5-5-6v-24l1-84-1-44-5-9-16-24-2-5-2-1z" fill="#2773C0"/>
<path transform="translate(772,581)" d="m0 0 6 1 7 3 6 2 4 6 12 14v2l4 2 8 9-1 3-4 1h-56l-8-4-3-4 1-7 4-3 11-1 33-1-1-3-8-7-14-10z" fill="#164082"/>
<path transform="translate(1880,1392)" d="m0 0h15l1 5v37l-3 2-4-1 2-7 1-22-3-9h-10l-39 4-21 3-24 2-12 2-17 2-17 3-10 2-3 1-11 1-4 1-10 2-1 1-15 3-14 3-16 3-9 2-4 1-7 2-16 3-6 2h-8l-5-1v-2l32-8 42-8 37-7 25-5 67-10 44-5z" fill="#2669B4"/>
<path transform="translate(1079,92)" d="m0 0 6 1 21 8 7 3 16 8 14 8 22 15 14 12 10 9 12 12 7 8 13 18 9 13 7 11 11 23 10 26 1 6-3 1h-10l-14 2-12 4-10 2-10-7-12-5-4-1h-16l-7 3-7 6-5 8-1 4v10l3 9 3 10-1 2h-7l-13-5 2-6 4-1 1-6 5-1 1-15 6-12 7-6 8-3h24l3 2 2-1v2l8 2 6 2 7 1 14-2h24l-1-4-5-16-5-13-8-15-6-12-8-12-8-11-18-22-16-16-8-7-12-9-14-10-21-12-16-8-21-8-9-1-3 4h-2l-1 16 2 15v14l-2 3-1-20-1-5v-16l3-10z" fill="#2773C0"/>
<path transform="translate(837,133)" d="m0 0 3 1 1 2 2 16 1 7v15l-4 10-7 7-15 8-16 8-11 7-15 15-13 10-9 2-3-3 9-17 9-15 8-12 12-15 7-9h2l2-4 13-13 8-7 10-9zm-2 6-2 1v3l-3-1-1 5-4 2-13 10-5 5-1 3-3 1-5 5-4 5-5 6v2l-4 2-8 12-3 5v2h-2l-3 4-6 14 1 4 4-1 4-2v-2h2v-2h2l1-3 2-1v-3l4-2v-2l6-2 4-2 3-4 15-6 9-3v-2l5-1 3-3v-2l4-1 6-9 1-8v-22l-1-7z" fill="#2773C0"/>
<path transform="translate(598,1287)" d="m0 0 2 1-9 14-9 15-8 14 1 4 20 12 10 7 15 9 18 11 14 10 14 9-15-15-11-9-11-10-17-13-12-11-1-2 7 2 9 6 3 1 5 5 3 1 1 5 6 1 3 5 3 3v3h5v3l6 2 5 4v2l4 2 10 8 7 6 8 6 5 8-1 4-9-3-12-8-12-7-8-7-11-6-3-3-5-3-10-7-10-5v-2l-5-2-7-4-10-6-8-3-5-4-2-3v-7l5-12 4-6h2l1-4 3-7 6-9 5-2z" fill="#1F63B1"/>
<path transform="translate(1205,433)" d="m0 0 6 1 5 4 1 2v10l-5 15-7 12-9 10-6 5-6 3h-6l-5-5-2-5 6-7 6-3 11-16 4-12v-7l4-6z" fill="#FEFEFE"/>
<path transform="translate(754,1602)" d="m0 0 10 5 17 14 13 11 10 9 8 7 5 6 1 4-1 4h-4l2 3 2 6 5 4 1 2 5 3 3 4 2 4-1 3-14-12-20-16-12-9-14-10-8-6 1-2 5 2 5 3 4 2v2l3-1 7 3-1-4v-2l-1-4-1-5-3-1-2-4-2-1-1-3-2 1-2-5-4-1-16-14z" fill="#2C76C1"/>
<path transform="translate(666,1128)" d="m0 0h2l-4 17-5 19-9 24-7 17-3 5-1 7-8 16-1-3 4-8 2-7v-7l4-7 3-8 4-6 3-14 1-10-4-4-12 2-5 2v2l-6 2v2l-17 12-5 5-5 2-3 1v2l-5 2-3 1-1 4-3 3-16 8-9 5-6 3h-5l-2 1 1-3 22-12 11-7 22-15 16-11 19-14 14-12 10-9 4-5z" fill="#2064B1"/>
<path transform="translate(357,1492)" d="m0 0 12 2 47 10 44 10 31 9 33 10 19 4 27 10 25 9-3 1-12-3-8-1-19-5-29-9v-2l-9-1-19-5-12-4-5-3-33-7-13-3-32-8-16-3-4-2-15-3-4-1v-2h-3v-2z" fill="#1D62B0"/>
<path transform="translate(1079,95)" d="m0 0 9 1 26 10 22 12 16 10 12 9 10 8 15 14 11 11 11 14 8 10 4 6 10 16 14 27 9 27-1 2h-13v-1l10-1-3-8-1-5-3-12-5-10-5-9-4-8-10-16-6-9-9-11-6-7v-2h-2l-5-6-2-1v-3l-4-2-5-5-10-8v-2h-2l-5-6-6-3-6-5-5-3-8-6-10-5-11-6-12-6-10-2-8-4-5-1h-5l-1 11-2 10 1 7 1 4v14l-4 9h-2l-2 4-5 4h-2l-2 4-4 1-33 1-9 3-5 2-1 14-5 13-5 6-2 6-5 3-7 4v3l-2 2h-5l2-4 5-5 10-8 6-8 5-11 1-15 5-4 7-3 15-2 20-1 9-3 6-5 3-7h2v-17l-2-15 1-12 1-4z" fill="#175DAD"/>
<path transform="translate(1166,1437)" d="m0 0 1 2-12 29-6 15-10 23-6 15-8 23-11 28-9 24-7 20-9 26-6 16-14 42-6 16-7 19-6 21-1 4 5-3 10-16 9-12 10-16 12-14 10-13 5-6 4-3 3 1-4 4h-2l-2 4-11 13-7 9-6 7-7 12-12 17-7 11-8 12-5 7h-4l1-10 10-32 8-20 5-14 9-29 10-25 10-30 9-24 6-17 4-8 6-15 8-24 5-13 7-15 8-19 8-21 6-13z" fill="#2773C0"/>
<path transform="translate(1241,294)" d="m0 0h13l6 2 4 5 4 11 1 14 1 3v36l-1 3-2 21-5 32-6 20-12 29-13 23-15 22-9 11-11 13-11 11-11 9-12 10-5 2 5-5 4-2v-3h3l2-4 3-4h3v-2l8-7 5-5h2l2-4 4-6h2l2-4 9-9 3-6 6-8 4-7 6-6 3-7 2-4 8-17h2l3-12h2l1-8 2-8 2-9 3-12 2-4 2 1v-19l1-11 3-14 1-22-2-22-2-9-2-10-2-5h-23l-9 2-6 1 3-2 10-3z" fill="#1B63B2"/>
<path transform="translate(821,1425)" d="m0 0 3 3 12 28 10 25 9 20 8 21 6 19 4 10 10 23 11 31 6 16 16 42 4 12 4 16 7 18 3 9 8 23 9 28 1 7-3 1-5-4-8-14-10-16-7-9-13-18-8-12-9-10-7-8-1-3-4-2-1-4 4 2 7 6 1 4h2l6 8 6 7 7 10 4 6v2h2l8 11 7 10 8 13 7 12v2h2l-2-10-14-42-4-11-7-18-6-22-16-44-10-26-9-25-10-24-12-35-21-49-14-35z" fill="#2773C0"/>
<path transform="translate(943,590)" d="m0 0 21 1 17 5 19 10 1 2-7 2-4 2-10 1-21-5-11-1v-2l-11-1-13-4-5-3-5-1 3-2 14-3z" fill="#2672BF"/>
<path transform="translate(920,1415)" d="m0 0 2 2 5 17 7 24 8 30 5 16 7 20 7 24 4 16 7 26 4 11 4 13 10 35 2 9 3 6 3 1 4-9 5-16 14-46 6-24 7-25 7-21 6-21 3-12 7-26 7-24 3-8 1 3-10 34-5 21-6 22-7 24-6 16-7 29-6 22-12 39-3 11-5 13-2 2-5-1-3-4-5-16-5-18-3-13-13-40-4-16-7-26-3-12-9-25-15-55-7-25z" fill="#2773C0"/>
<path transform="translate(992,79)" d="m0 0h14l25 1 18 3 10 3-1 5-3 8-2 7v13l2 10 1 3v11l-1 1-26 2-13 2-13 5-10 9-4 9-2 16-3 5-8 7-7 5-5 6-1-2 7-9 9-7 4-4 2-15 5-12 4-5 10-7 11-4 6-2 30-1-1-2 2-3v-5l-2-4v-16l2-14 4-10-16-3-12-3h-37l-8 1-1 15-2 7h-2l-1 7-2 6-6 8-7 4h-2l-1 3-26 10-12 10h-2l-1 5-5 4-3 3 2-5 5-9 7-6 8-4 9-4 5-3 10-3 9-6 5-4 4-9 1-5 2-25 6-2z" fill="#2773C0"/>
<path transform="translate(1031,866)" d="m0 0h12l11 7 3 4 2 8-5 4-9-1-10-2-16 4-17 6-3-1 1-4 12-12 10-9z" fill="#164082"/>
<path transform="translate(714,285)" d="m0 0h2l-2 17-2 20-1 39v23h1l4 28 7 26 11 29 13 26 14 23 8 10 10 13 7 7 7 8 10 10 8 7 14 11 14 10-2 1-12-8-5-4-10-7v-2h-2v-2l-4-2-10-9-5-5-13-14-9-11-10-14-10-16-8-15-8-14-6-17-4-9-5-17-3-15-1-2-1-9v-14h-2l-2-15-2-12v-9l1-6v-16l2-16 3-4v-12l1-10z" fill="#2773C0"/>
<path transform="translate(1252,925)" d="m0 0 1 2-9 19-12 22-8 12-14 19-10 13-9 9-8 10-18 20-20 20-7 8-11 9-8 7-19 14-21 14-25 13-4-1 9-6 8-4 5-5 5-2h4v-2l6-2v-2l6-3 11-8 10-9 10-7 5-5 13-10 1-2h2l2-4 8-7h2l2-5h2l2-4h2l2-4 7-8 1-2h2v-2l5-5 1-2h2v-2l3-3 3-5 6-5 5-7 1-3h2l2-4h2l2-4 8-11 4-5 4-7 10-19 6-10 6-11z" fill="#175DAD"/>
<path transform="translate(1774,1474)" d="m0 0h7v49l-10 2-16 2h-5l2-3 16-1 7-1 1-10v-32h-13l-3 1-13 1-21 3-18 2-15 2-17 2-11 2-29 2 2-3 21-4 27-4 77-9z" fill="#1F64B1"/>
<path transform="translate(1199,1047)" d="m0 0 6 2 1 30v15h-1v-10h-2l-1-4v-16l-8 7-4 5h-2l-1 4h-2v3l-7 5-3-1 2-5 4-8-1-1-3 3h-2v2l-4 1-2 4-6 3-5 5-7 4-9 7-4 5-6 3h-2v2l-5 1 5-5 13-11 10-8 15-14 14-14 6-5 7-8z" fill="#175DAD"/>
<path transform="translate(816,1654)" d="m0 0 5 2 33 33-1 2-6-6-1 1 1 4-2-1v-2l-2 1 16 16 8 7 2 5-9 1-10-10-8-7-9-8-4-10-3-3-4-2v-2l-4-2-3-3-2-8h4v-6z" fill="#1D62B0"/>
<path transform="translate(938,864)" d="m0 0h9l9 4 15 8 7 4 2 4 1 5h-9l-4-2-18-2-15-1-11-4v-5l4-5 3-3z" fill="#164082"/>
<path transform="translate(1973,1621)" d="m0 0 3 1v53l-5 2-81 7-15 1 1-3 11-2 6-1h12l23-2 24-3 12-1 6-3h3v-42l-5-2-16 1-3 1-44 1-16 1-2-1v2h-31v-1l49-4 59-4z" fill="#2469B5"/>
<path transform="translate(1896,1533)" d="m0 0h16l-1 3-21 2-52 2-19 2-16 1-7 1h-11l-14 3-29 1h-11l-5-2v-1l41-4 74-6z" fill="#2165B2"/>
<path transform="translate(1094,44)" d="m0 0 14 2 21 6 26 8 30 12 25 12 13 7 19 12 17 12 13 11 10 9 18 18 9 11 12 17 4 6v2h-2l-12-18v-2h-2l-4-5v-2l-4-2-7-8-6-7-2-1v-2h-2l-5-5-5-4-7-8-11-8-5-4-2-1v-2l-5-1-14-10-10-6-17-8-8-4-9-5-10-3-7-3-12-5-8-3-18-5-15-5-5-3-14-2z" fill="#347CC4"/>
<path transform="translate(811,70)" d="m0 0h2l-1 3h-2v2l-13 5-10 5-7 3-11 6-8 4-4 4-7 5-12 5-5 5-9 7-5 4-3 5-9 7h-2l-2 4-6 7-5 5-11 13h-2v2l-3 1 2-4 11-13 12-14 16-15 11-9 13-10 15-10 15-9 27-13zm-136 102m-1 1 1 2-7 14-8 12-6 11-5 9-5 13-4 14-4 6-1-2 6-18 8-18 12-23 12-19z" fill="#327AC3"/>
<path transform="translate(1856,1438)" d="m0 0h13l-2 2-48 7-77 10-55 9 1-4 23-5 7-2 19-3 44-5 19-2 3-1 31-3 19-2z" fill="#2266B2"/>
<path transform="translate(752,1184)" d="m0 0 10 1 8 3 8 6 5 3 7 3 5 2 4 3v2l4 1 4 4v2l4 2 14 10 9 3v2l4 2 9 7 9 6 5 4 1 3-5-2-8-6-8-5-9-5-12-8-11-8-9-6-5-5-14-8-13-8-10-4h-5l-6 10-5 15-3 11-3 8-4 11-2 3-1 8h-1v-9l5-17 4-11 2-9 6-15 5-8z" fill="#2672BF"/>
<path transform="translate(1120,329)" d="m0 0 6 1 8 4 12 3-2 3h-2l-1 5 6 2 3 5-1 2h-4l-1 2-5-1-7-2v3l-4-2-6-4-7-8v-8z" fill="#175DAC"/>
<path transform="translate(1232,1184)" d="m0 0h6l6 5 5 13 4 14 7 20 5 12 4 8 1 7-3 5-6 5 2-4 3-4v-5l-6-13-6-16-7-21-6-17-3-5-7 1-11 6-18 11-8 5-14 11-17 11-10 6-4 1 3-3 22-14 5-4h2l1-3 10-8 7-6 16-8 5-3 3-3z" fill="#2773C0"/>
<path transform="translate(1404,1465)" d="m0 0h3v2l-36 19-16 8-13 8-24 14-12 6-10 7-19 12-21 14-17 12-9 6-2-1 8-7 4-4 7-3h2l2-4 14-9 4-3h2v-2l6-4 7-5 18-9h2l1-3 4-2h3v-2l13-7 5-1 1-3 14-7 5-3 1-2 6-3 12-7 9-4h3v-2l12-5z" fill="#1D62B0"/>
<path transform="translate(1274,439)" d="m0 0h1l-1 8-4 15-4 11-3 1-3 8-2 2-4 11-3 5-2 4h-2l-5 10h-2v2h-2l-2 5-3 6-6 5-6 10h-2l-2 4-5 4-9 11-9 7-5 5h-2l-1 3-11 7-3 5-6 2-9 6-5 3-5 5-6 2-3 2-4-1 13-8 17-11 16-12 14-12 10-9 8-9 7-8 9-11 13-18 12-21 11-22 9-24z" fill="#1C64B3"/>
<path transform="translate(1241,294)" d="m0 0h13l6 2 4 5 4 11 1 14 1 3v36l-1 3-2 21-5 32h-2l-3 12-4 11-2-1 2-10 2-9 3-12 2-4 2 1v-19l1-11 3-14 1-22-2-22-2-9-2-10-2-5h-23l-9 2-6 1 3-2 10-3z" fill="#175DAD"/>
<path transform="translate(1631,1658)" d="m0 0h5l-2 2-9 3-15 2-19 5-14 3-17 4-23 5-21 4-6 2h-10l-1-2 13-4 39-9 62-12z" fill="#2265B2"/>
<path transform="translate(1206,430)" d="m0 0 8 2 2 1v3h2l1 22-4 4-3 8-10 16h-3l-2 4-3 4-5 2h-3v2l-7 1-8-6-2-5 1-6 3-5 6-3 9-13 4-7 2-7v-8l4-5zm-1 3-5 3-2 4v8l-5 12-10 15-8 5-4 5 3 7 4 3h6l9-5 10-10 8-13 5-13 1-4v-10l-5-5-4-2z" fill="#1C64B3"/>
<path transform="translate(994,907)" d="m0 0 4 4 2 7v8l1 5-2 6-3 3 2 5 1 2h4v2l-7 3-5-1-5-5v-2h-2l-1-4 2-7 8-25z" fill="#164082"/>
<path transform="translate(1793,1637)" d="m0 0h9l-4 2-16 2-12 3-15 1-26 4-17 2-11 2-26 3h-9l-2-3 26-4 31-4z" fill="#2165B2"/>
<path transform="translate(1025,241)" d="m0 0 24 1 13 3 10 6 6 7 1 3v11l-3 6-11 2h-12v-1l17-2 4-5v-14l-5-6-8-3-4-1-1 2-7-1-2-1-11-1-1-3-9-1-3 2-5 1-21 1h-12v-2l-3-1-1-2h10l7 1 8-1z" fill="#2773C0"/>
<path transform="translate(1192,1799)" d="m0 0h3l-1 4-16 8-3 3-12 5-9 6-8 6-11 6-9 6-7 4-5 4-7 4-10 7-5 4h-2v2l-9 7-6 5-2-1 5-6 5-5 12-9 30-20 14-9 32-20z" fill="#2064B1"/>
<path transform="translate(924,34)" d="m0 0h131l6 2v1h-80l-13 1-40 1-16 2-6-1 3-2z" fill="#2E77C2"/>
<path transform="translate(943,590)" d="m0 0 21 1 17 5 5 3-5 5-13-1-1-1-6 1-5-1-1 1h-7l-8-3-3-2 3-1z" fill="#185FAE"/>
<path transform="translate(709,1008)" d="m0 0 2 4 1 12v40l-4 13-4 9-3 10-2 1-3 9h-2l-3 10-3 16-3 3-6 19-2 1 4-17 7-28 3-10 11-18 6-12 1-4z" fill="#397EC5"/>
<path transform="translate(21,1662)" d="m0 0h1l2 7 8 3 7 1 11 1 13 2 31 2 24 3 9 3v1h-10l-54-5-37-3-5-2z" fill="#2165B2"/>
<path transform="translate(1203,1039)" d="m0 0 3 2 1 5v58l-1 9h-1v-34l-1-30-5-1-5 2-10 11-8 7-17 17-8 7-16 13-11 8-2-1 13-11 13-10 17-16 15-15h2v-2h2l2-4 10-10z" fill="#2E76C1"/>
<path transform="translate(1497,1686)" d="m0 0h2v4l-9 2-14 4-18 3-18 6-5 2-20 5-9 3h-5l1-3 43-14 20-5 17-3z" fill="#1D62B0"/>
<path transform="translate(890,1851)" d="m0 0 4 1 8 5 11 8 13 11 9 7 18 10 15 6 15 4 22 1 11-2 15-4 17-7 19-11 5-3 1 2-14 9-11 6-14 6-20 5-7 1h-19l-12-2-18-6-17-8-16-11-11-10-13-9-6-4z" fill="#2773C0"/>
<path transform="translate(1293,1686)" d="m0 0 7 1-4 4-6 2-1 2-10 2v2l-7 4-4 1-11 4-4 1v2l-8 3-4 1v2l-4 2h-5l1-3 3-3 7-3 4-3 5-3 7-3 5-1v-2l20-8z" fill="#2672BF"/>
<path transform="translate(1951,1623)" d="m0 0h23l1 1v42h-1l-1-38-5-2-16 1-3 1-44 1-16 1-2-1v2h-31v-1l49-4z" fill="#1D62B0"/>
<path transform="translate(714,285)" d="m0 0h2l-2 17-2 20-2 63h-1l-2-13-2-12v-9l1-6v-16l2-16 3-4v-12l1-10z" fill="#3A7FC5"/>
<path transform="translate(626,1163)" d="m0 0m-2 1 2 1-2 4-17 12-5 5-5 2-3 1v2l-5 2-3 1-1 4-3 3-16 8-9 5-6 3h-5l-2 1 1-3 22-12 11-7 22-15 16-11z" fill="#2064B1"/>
<path transform="translate(1119,1905)" d="m0 0 4 1-13 10-16 13-12 9-16 11-12 5-20 5-13 2 2-1v-2h5v-2l14-3 9-4 9-1v-2l7-3 7-4h2v-2l5-3 5-4 6-2v-2h3l2-4 12-8 4-5 5-2z" fill="#1F63B1"/>
<path transform="translate(727,1254)" d="m0 0 1 3 1 7 5 5v2h2l11 14 8 11 3 6 4 5 11 17 15 29 13 24 9 21 8 18 3 6-1 3-8-16-14-32-10-19-12-23-11-19-7-11-4-5-5-8-11-14-2-4h-2l-8-10-1-7z" fill="#2773C0"/>
<path transform="translate(1159,269)" d="m0 0 1 2-8 10-3 5-1 4v10l3 9 3 10-1 2h-7l-13-5 2-6 4-1 1-6 5-1 1-15 6-12z" fill="#185FAF"/>
<path transform="translate(715,128)" d="m0 0m-1 1m-1 1m-1 1m-1 1m-1 1m-1 1m-2 1 2 1-3 3-3 5-6 7-5 5-11 13h-2v2l-3 1 2-4 11-13 12-14zm-32 37m-1 1 1 2-7 14-8 12-6 11-5 9-5 13-4 14-4 6-1-2 6-18 8-18 12-23 12-19z" fill="#3F82C6"/>
<path transform="translate(1066,158)" d="m0 0v3l-3 1-2 4-4 1-33 1-9 3-5 2-1 14-5 13-5 6-2 6-5 3-7 4v3l-2 2h-5l2-4 5-5 10-8 6-8 5-11 1-15 5-4 7-3 15-2 20-1 9-3z" fill="#2773C0"/>
<path transform="translate(1339,1222)" d="m0 0 4 5 11 23 10 19 13 22 12 22 3 6-1 2-4-4-2-5-6-11-7-11-4-8-9-16-3-4-6-11-6-10-2-7-3-8z" fill="#2B6CB6"/>
<path transform="translate(1223,1012)" d="m0 0 1 3v50l-1 13-1 85-2-2v-22l1-75-1-48z" fill="#4586C8"/>
<path transform="translate(1125,1111)" d="m0 0m-1 1v3l-4 6-6 1v2l-20 12-5 4-7 3-14 7-20 7-4-1 25-10 17-10 17-11 16-11z" fill="#1960B0"/>
<path transform="translate(1239,292)" d="m0 0h17l6 4 4 6 4 10 1 15v39l-2 20-3 19-2 8-1-4 4-27 1-14 1-3v-36l-1-3-1-14-5-12-2-4-6-1h-13l-15 3-5 2h-8l4-2z" fill="#2773C0"/>
<path transform="translate(590,1709)" d="m0 0 7 1 50 16 25 10 5 3-4 1-13-5-12-4-9-4-23-6-10-4-2-1v-2l-11-2z" fill="#2265B2"/>
<path transform="translate(1017,466)" d="m0 0 6 2 1 9h-2l4 5 2 9v11l-4 13h-1l-2-11-2-23z" fill="#2773C0"/>
<path transform="translate(890,43)" d="m0 0 2 1-1 2-24 10-9 3-8 2-10 2-9 1v-2l38-13z" fill="#3179C3"/>
<path transform="translate(1340,1586)" d="m0 0 2 1-3 3-11 6-12 6-7 3-5 1-2 4-19 10-5 2v2l-7 5-10 5-2-1 5-5 16-10 23-13 16-8 7-4z" fill="#3E82C6"/>
<path transform="translate(601,731)" d="m0 0 4 5 6 13v6l3 4 4 10 5 11 1 4h2l5 8 2 4 2 1 6 14 2 2v5l-4-5-10-18-9-14-8-16-9-25z" fill="#387EC4"/>
<path transform="translate(523,1692)" d="m0 0h7l28 6 34 10-2 2-9-1-15-4-18-4-12-4-10-2-3-1z" fill="#2467B3"/>
<path transform="translate(1038,88)" d="m0 0 9 1 3 4-1 11-1 6-3 2-4-5-5-10-1-6-1-2z" fill="#164082"/>
<path transform="translate(1106,1099)" d="m0 0m-1 1m-1 1m-1 1m-1 1 3 2-15 11-13 8-23 12-4-1 9-6 8-4 5-5 5-2h4v-2l6-2v-2l6-3z" fill="#1B63B2"/>
<path transform="translate(418,1551)" d="m0 0h9l6 2 15 2 24 5 13 3 15 5 11 3 5 2-1 2-24-7-22-5-51-11z" fill="#3B80C5"/>
<path transform="translate(1206,430)" d="m0 0 8 2 2 1v3h2l1 22-4 4-3 8-10 16-6 1 6-7 8-13 5-13 1-4v-10l-5-5-6-1-4 2-2 4v8l-3 8-1-4 1-12 4-7z" fill="#1D65B4"/>
<path transform="translate(1260,421)" d="m0 0 1 4-8 24-9 21-13 23-2-3 6-12 8-17h2l3-12h2l1-5h2l3-11z" fill="#1E66B5"/>
<path transform="translate(896,361)" d="m0 0 5 1 6 15 2 1v2l4 2 6 4 3 1v2l4 1 1 5-5-2-12-7-8-8-6-13z" fill="#2672BF"/>
<path transform="translate(875,1721)" d="m0 0 4 1 7 8 7 9 3 5 4 7v2l-4-1-8-10v-2l-3-1-5-5-5-6z" fill="#175DAD"/>
<path transform="translate(1220,1577)" d="m0 0 3 1-11 9-13 11-9 7-13 12h-2l-1 3-8 7-3 1v-3l9-7 5-5 12-11 6-7h3l1-3 6-3 3-1v-2h2l2-4 5-1 1-3z" fill="#1A60AF"/>
<path transform="translate(1198,561)" d="m0 0 3 1-12 11h-2l-1 3-11 7-3 5-6 2-9 6-5 3-5 5-6 2-3 2-4-1 13-8 17-11 16-12 14-12z" fill="#1C64B3"/>
<path transform="translate(1207,1158)" d="m0 0 9 3 4 3-1 8-5 4-5 1-2-3z" fill="#FEFEFE"/>
<path transform="translate(84,1626)" d="m0 0 23 1 49 4 13 2v1h-13l-23-2-28-1-1-1-11-1-9-2z" fill="#1F64B1"/>
<path transform="translate(21,1623)" d="m0 0h12l46 2v1l-17 1h-32l-4 1-1 3h-2l-2 8h-1v-14z" fill="#2E6FB7"/>
<path transform="translate(1364,521)" d="m0 0h2l-2 20-7 51h-1v-14l1-7v-12l4-20v-9l2-7z" fill="#367CC4"/>
<path transform="translate(1297,1562)" d="m0 0 2 1-4 5-8 4h-2v2l-3 1-2-2zm-19 12 2 1-1 3-9 6h-3v2h-2l-2 4-3 1-1 3-6 2-4-1 5-5 23-15z" fill="#347BC3"/>
<path transform="translate(881,319)" d="m0 0 1 3-3 12v29l3 11 7 14 9 9h-3l-2-1v-2h-2l-5-6-7-14-2-7-2-22v-9l4-15z" fill="#2773C0"/>
<path transform="translate(1079,92)" d="m0 0 6 1 21 8 7 3 1 2-5-1-21-8-9-1-3 4h-2l-1 16 2 15v14l-2 3-1-20-1-5v-16l3-10z" fill="#2773C0"/>
<path transform="translate(598,1287)" d="m0 0 2 1-9 14-9 15-8 14-2-1 1-6 7-12h2l1-4 3-7 6-9 5-2z" fill="#2165B2"/>
<path transform="translate(906,598)" d="m0 0 3 1-3 2 5 2 10 1 1 3h6l3 3v3l3 1-8-1-27-9 1-3z" fill="#2672BF"/>
<path transform="translate(1077,1873)" d="m0 0 2 1-6 5 2-4zm-6 6h2l-1 3h-2v2l-4 1v2l-11 6-16 7-16 5-8 2h-13v-1l16-3 18-5 15-6 16-10z" fill="#175DAD"/>
<path transform="translate(1167,266)" d="m0 0h24l3 2 2-1v2l8 2 6 2 7 1 14-2h11v1l-14 2-8 3-10 1-6-3-7-4-7-3-5-1-18-1z" fill="#175DAD"/>
<path transform="translate(1287,390)" d="m0 0h1v12l-4 23-3 11h-3l-2 6h-1l1-10 2-7h2l2-11 3-14 1-9z" fill="#185EAE"/>
<path transform="translate(1031,528)" d="m0 0 4 2 1 4 3 1 1 3 9 2 5 2 1 2-5 2h-9l-7-6-5-10z" fill="#2671BF"/>
<path transform="translate(1467,1434)" d="m0 0m-2 1h2v2l-29 15-23 11-5 2 2-4 12-7 10-4 13-6 11-6z" fill="#1960AF"/>
<path transform="translate(1404,1465)" d="m0 0h3v2l-36 19-15 7 2-4 11-7 9-4h3v-2l12-5z" fill="#2165B2"/>
<path transform="translate(1239,512)" d="m0 0 1 4h-2l-2 5-3 6-6 5-6 10h-2l-2 4-5 4-9 11-4-1 10-10 7-9 10-11 8-11z" fill="#1C65B3"/>
<path transform="translate(1271,1715)" d="m0 0m-1 1 1 2-29 13-21 9-5 2 2-5 4-2 11-4 8-2v-2l15-5 10-5z" fill="#3B80C6"/>
<path transform="translate(1322,1130)" d="m0 0 4 2 9 8v2h-5v9l4 14v3h-2l-6-20-4-15z" fill="#4F8DCB"/>
<path transform="translate(1153,1714)" d="m0 0m-1 1m-1 1m-1 1m-1 1m-1 1m-1 1m-1 1m-1 1m-1 1m-1 1m-1 1m-2 1 2 1-34 34-2 6-5 4v3l-5 8h-1l1-7 5-9 9-10z" fill="#81ADDA"/>
<path transform="translate(1246,1686)" d="m0 0h2l-2 4-6 4-7 3-6 4-1 2-7 3-4 3-9 4-3-1 10-7 19-11z" fill="#397EC5"/>
<path transform="translate(1173,1870)" d="m0 0m-1 1m-1 1m-3 1h3l-1 3-24 15-17 11-3 1 2-4 5-2 1-3 9-5 15-9z" fill="#1F64B1"/>
<path transform="translate(471,1632)" d="m0 0 13 1 19 5 13 3 16 5 2 1-1 2-26-7-36-9z" fill="#3A7FC5"/>
<path transform="translate(1307,1654)" d="m0 0 2 1-6 5h-3v2l-12 5-10 4-4 2v2l-10 4-7 2v2l-2-1 3-3 10-6 28-13z" fill="#4787C9"/>
<path transform="translate(1495,1527)" d="m0 0 2 1-8 5-11 3-22 5-7 2h-5l3-2 21-7 14-3z" fill="#4B8ACA"/>
<path transform="translate(672,762)" d="m0 0h2l4 16 3 14 6 25 1 6-3-1 1-2-2-1-2-5h2l-4-13-3-14-4-15-1-3z" fill="#2773C0"/>
<path transform="translate(1366,1277)" d="m0 0 4 2 11 19 11 21-1 2-4-4-2-5-6-11-7-11-4-8z" fill="#2467B3"/>
<path transform="translate(1875,1682)" d="m0 0m-10 1h10v2l-36 4h-13l1-2 11-1 13-2z" fill="#1960AF"/>
<path transform="translate(1390,1331)" d="m0 0 2 1-13 12-12 9h-2v2h-2v2h-2v2h-2v2l-7 5 2-5 6-5h2l2-4 8-8 10-7z" fill="#2669B4"/>
<path transform="translate(1164,267)" d="m0 0h21l10 3 8 4 4 3 6 1 10-1v2l-10 3-4-1-6-4-12-6-7-2h-16l-9 3 2-4z" fill="#2773C0"/>
<path transform="translate(1254,962)" d="m0 0 2 3-12 19-12 18-7 10-2-1 8-12 11-17z" fill="#2773C0"/>
<path transform="translate(1206,1157)" d="m0 0h1l1 17 1 2 5-1 4-3 1-8 3-1v9l-5 6-5 2h-5l-2-4v-14z" fill="#2773C0"/>
<path transform="translate(1283,1078)" d="m0 0 4 5 8 13 5 12v2l-4-2-14-28z" fill="#2C76C1"/>
<path transform="translate(1234,1634)" d="m0 0m-1 1m-1 1v3l-16 11-9 7-1-3 3-3h2l1-4 4-1v-3l8-4z" fill="#377DC4"/>
<path transform="translate(1180,1060)" d="m0 0m-1 1m-1 1m-1 1m-1 1m-1 1m-1 1m-1 1m-1 1m-1 1m-1 1m-1 1m-1 1m-1 1m-1 1m-1 1m-1 1m-1 1m-1 1m-1 1m-1 1m-1 1m-1 1m-1 1m-1 1v3l-11 10-14 11-7 5-2-1 13-11 13-10z" fill="#2773C0"/>
<path transform="translate(1198,486)" d="m0 0v3l-4 5-5 2h-3v2l-7 1-8-6-1-4 4 1v2l4 2h6l9-5z" fill="#1E67B6"/>
<path transform="translate(1890,1627)" d="m0 0h18l-3 2-16 1-2-1v2h-31v-1z" fill="#1F63B1"/>
<path transform="translate(1706,1529)" d="m0 0h19v1l-61 7-4-1 10-2 18-3z" fill="#3D81C6"/>
<path transform="translate(1172,284)" d="m0 0h9l12 5 12 9 2 2-5-1-9-7-12-5h-8l-3 3-1 3v11l-2-3-1-2v-7l4-7z" fill="#2773C0"/>
<path transform="translate(940,857)" d="m0 0 9 1 6 3 5 5h-5l-9-3h-13l1-3z" fill="#2773C0"/>
<path transform="translate(902,1353)" d="m0 0 2 3 2 6 3 13 4 15 7 22-1 3-4-11-6-19-7-27z" fill="#2773C0"/>
<path transform="translate(655,207)" d="m0 0 1 2-4 6-5 12-3 7-4 14-4 6-1-2 6-18 8-18 5-8z" fill="#2A75C0"/>
<path transform="translate(404,1502)" d="m0 0 12 2 40 9v1l-13-1-11-3-14-2-14-4z" fill="#3F82C7"/>
<path transform="translate(1028,221)" d="m0 0 7 1 24 3 3 2-23-2h-56v-1l36-1 8-1z" fill="#2773C0"/>
<path transform="translate(1341,1639)" d="m0 0h3v2l-8 5-9 3-14 5-3-1 23-11z" fill="#3B80C5"/>
<path transform="translate(1098,1857)" d="m0 0 2 1-6 7-4 1v2l-9 7-6 5-2-1 5-6 5-5 12-9z" fill="#2C6CB5"/>
<path transform="translate(693,1020)" d="m0 0 2 2v47l-2 2z" fill="#FEFEFE"/>
<path transform="translate(1138,1073)" d="m0 0m-1 1m-1 1m-1 1v3l-13 12-11 8-6 5-2-1 11-11 10-7 5-5z" fill="#175DAD"/>
<path transform="translate(1092,1781)" d="m0 0h2v9l-5 3-8 4 1-5z" fill="#2773C0"/>
<path transform="translate(1358,1488)" d="m0 0m-1 1m-1 1m-2 1h2l-2 4-26 15-4 2 2-4 4-1 1-3 14-7 5-3 1-2z" fill="#2165B2"/>
<path transform="translate(728,243)" d="m0 0 1 3-7 20-2-1-2 14h-1v-10l3-12 7-13z" fill="#2E77C2"/>
<path transform="translate(1216,1690)" d="m0 0 3 1-4 4-24 16h-2v-4l4-2h3l1-3 10-5 8-6z" fill="#337BC3"/>
<path transform="translate(398,1616)" d="m0 0 12 1 28 6 2 2-10-1-34-6z" fill="#4184C7"/>
<path transform="translate(1259,1274)" d="m0 0v3l-9 12-11 15-10 15-1-2 10-16 8-11 9-11z" fill="#2773C0"/>
<path transform="translate(953,262)" d="m0 0h19l6 3v1h-25l-11 1 4-2z" fill="#2773C0"/>
<path transform="translate(874,1263)" d="m0 0 3 1 4 13 7 28-1 4-9-31-3-12z" fill="#2773C0"/>
<path transform="translate(1099,600)" d="m0 0 5 1-3 2-19 7h-9l3-3 18-5z" fill="#185AA7"/>
<path transform="translate(1101,470)" d="m0 0h1l1 5v7l-2 11-2 2-2 4v-12l2-10z" fill="#185EAE"/>
<path transform="translate(1171,308)" d="m0 0 3 4v16l-5 6-4 3-4 1h-15v-1l13-1 8-5 5-8v-9z" fill="#1F68B7"/>
<path transform="translate(1084,1369)" d="m0 0h2l-2 11-5 21-2 7h-1l1-9 2-7 1-13z" fill="#2773C0"/>
<path transform="translate(1631,1475)" d="m0 0 4 2-30 6-11 2 3-3 18-4z" fill="#3C80C6"/>
<path transform="translate(1142,1072)" d="m0 0 2 1-13 12-8 7-16 12-2-1 12-10 8-6 11-10z" fill="#2773C0"/>
<path transform="translate(1064,632)" d="m0 0h5l2 3-16 3h-17v-1z" fill="#1F69B7"/>
<path transform="translate(1340,1586)" d="m0 0 2 1-3 3-11 6-12 6-2-1 9-7z" fill="#357CC4"/>
<path transform="translate(660,843)" d="m0 0 5 2 10 6 4 1h10l1-6h2l1 5-5 3-4 1h-7l-11-6-6-5z" fill="#4989CA"/>
<path transform="translate(1124,1840)" d="m0 0m-2 1 2 1-5 5-5 4-7 4-6 4-2-1 5-5z" fill="#1960AF"/>
<path transform="translate(1305,825)" d="m0 0 1 4-3 16v8l-4-2 1-10 4-15z" fill="#2974C0"/>
<path transform="translate(1114,1677)" d="m0 0 3 1-4 4h-2l-2 4-11 13-4 2 6-9 10-12z" fill="#2974C0"/>
<path transform="translate(1503,1507)" d="m0 0h6l-3 2-24 7-7 2v-3l8-3z" fill="#4A8ACA"/>
<path transform="translate(1239,1729)" d="m0 0m-3 1h3v2l-20 9-3 1 2-5 4-2 11-4z" fill="#367CC4"/>
<path transform="translate(1335,694)" d="m0 0h1l-1 14-2 14h-2l-1-6 3-16z" fill="#337AC3"/>
<path transform="translate(1368,455)" d="m0 0 3 3 3 6-1 2-3-3v25l-1 5h-1z" fill="#A3C3E3"/>
<path transform="translate(1063,259)" d="m0 0 5 2 1 5-2 1h-6l-5-3v-3l3-1 4 1z" fill="#2672BF"/>
<path transform="translate(1158,1720)" d="m0 0 6 1v5l-4 1-5 5-4-1 2-5 4-2z" fill="#175DAD"/>
<path transform="translate(1403,1558)" d="m0 0 2 1-8 4h-2v2l-22 9-3-1 16-8z" fill="#4284C7"/>
<path transform="translate(1161,590)" d="m0 0 2 1-4 4-6 3-6 6-6 2-3 2-4-1 13-8z" fill="#1D65B4"/>
<path transform="translate(1561,1554)" d="m0 0h6l-4 2-31 7-3-1 5-3 21-4z" fill="#397FC5"/>
<path transform="translate(1084,1137)" d="m0 0 2 1-9 6-5 3h-2v2l-22 8-4-1 25-10z" fill="#2671BE"/>
<path transform="translate(879,646)" d="m0 0h9l12 5 1 4-10-3-12-5z" fill="#164082"/>
<path transform="translate(1077,1873)" d="m0 0 2 1-6 5 2-4zm-6 6h2l-1 3h-2v2l-4 1v2l-11 6-5 1 4-4 13-8z" fill="#185EAE"/>
<path transform="translate(676,1156)" d="m0 0h2l-2 10-5 15-6 13-1-2z" fill="#367DC4"/>
<path transform="translate(984,639)" d="m0 0h25l-2 1-1 3-6 1-8-2v-2h-8z" fill="#2570BE"/>
<path transform="translate(1418,1611)" d="m0 0 2 1-1 2-18 6-10 2v-2z" fill="#4385C8"/>
<path transform="translate(715,128)" d="m0 0m-1 1m-1 1m-1 1m-1 1m-1 1m-1 1m-2 1 2 1-3 3-3 5-6 7-6 3 2-4z" fill="#508DCC"/>
<path transform="translate(1148,1886)" d="m0 0m-1 1m-3 1h3l-2 4-18 11v-3l4-3h2l1-3 9-5z" fill="#1F64B1"/>
<path transform="translate(734,1586)" d="m0 0 5 2 12 8 3 4-1 2-4-2v-2l-6-2-4-3v-2l-4-2z" fill="#2D77C1"/>
<path transform="translate(1009,614)" d="m0 0 9 6-1 2h-38v-1l32-1-2-3z" fill="#2773C0"/>
<path transform="translate(746,1683)" d="m0 0 5 2 17 10 9 5v2l-5-1-5-4-7-3-10-7-3-1z" fill="#377DC4"/>
<path transform="translate(1264,1615)" d="m0 0 3 1-18 11-7 4 2-5 4-1v-2l9-4z" fill="#4184C7"/>
<path transform="translate(1033,859)" d="m0 0h7l7 3 3 3-3 1-3-2-14-1 1-3z" fill="#2773C0"/>
<path transform="translate(1253,492)" d="m0 0 1 3-3 5-2 4h-2l-5 10h-2l1-5 9-15z" fill="#1B63B2"/>
<path transform="translate(1247,1558)" d="m0 0 1 3-18 12-2-1 8-7 4-4z" fill="#2064B1"/>
<path transform="translate(1159,269)" d="m0 0 1 2-8 10-3 5-2 13h-1v-12l6-12z" fill="#1C64B3"/>
<path transform="translate(1377,1625)" d="m0 0h2l-1 3-16 6-6 1v-2l17-7z" fill="#347BC3"/>
<path transform="translate(1342,1189)" d="m0 0 4 5 6 15 2 9-1 3-8-22-3-7z" fill="#3C80C6"/>
<path transform="translate(680,795)" d="m0 0h2l5 22 1 6-3-1 1-2-2-1-2-5h2l-4-13z" fill="#2773C0"/>
<path transform="translate(601,731)" d="m0 0 4 5 6 13v5h-3l-7-20z" fill="#3C80C6"/>
<path transform="translate(1220,537)" d="m0 0v3l-5 5-4 7-8 9-4-1 10-10 7-9z" fill="#226CBA"/>
<path transform="translate(1631,1658)" d="m0 0h5l-2 2-9 3-15 1 3-3z" fill="#1C62B0"/>
<path transform="translate(1430,1452)" d="m0 0m-3 1h3l-1 3-19 9 2-4 12-7z" fill="#3371B7"/>
<path transform="translate(1105,1761)" d="m0 0 2 2-1 4-5 4v3l-5 8h-1l1-7 5-9z" fill="#FEFEFE"/>
<path transform="translate(1525,1518)" d="m0 0h5l-4 3-4 2-13 3h-4v-2z" fill="#3D81C6"/>
<path transform="translate(364,1476)" d="m0 0h13l17 4 2 1-1 2-31-6z" fill="#4486C8"/>
<path transform="translate(714,285)" d="m0 0h2l-2 17-1 8h-1l-1-13 1-10z" fill="#3D81C6"/>
<path transform="translate(1307,1654)" d="m0 0 2 1-6 5h-3v2l-12 5-4 1 4-4 16-8z" fill="#327AC3"/>
<path transform="translate(169,1633)" d="m0 0 13 1 18 2v1h-25l-6-2z" fill="#2E6FB7"/>
<path transform="translate(1588,1503)" d="m0 0 2 1-5 3-11 3-11 1v-2z" fill="#4184C7"/>
<path transform="translate(612,1261)" d="m0 0h2l-2 6-9 16-1-3 2-3 3-10z" fill="#2568B3"/>
<path transform="translate(1093,249)" d="m0 0 3 4 3 6 1 7-2 13h-1l-1-18-3-9z" fill="#1D65B4"/>
<path transform="translate(1096,1131)" d="m0 0m-1 1v3l-6 5-7 3-9 5-3-1 15-9z" fill="#175DAD"/>
<path transform="translate(1544,1496)" d="m0 0h5l-4 2-18 5h-4v-2l12-4z" fill="#327AC3"/>
<path transform="translate(637,1208)" d="m0 0 1 3h2l-1 6-8 16-1-3 4-8 2-7v-6z" fill="#2669B4"/>
<path transform="translate(579,659)" d="m0 0 3 3 5 21 1 6h-2l-7-26z" fill="#4687C9"/>
<path transform="translate(1120,613)" d="m0 0 2 1-4 4-18 6-3-1 5-3 17-6z" fill="#1F67B5"/>
<path transform="translate(1119,1905)" d="m0 0 4 1-13 10-10 8v-3l12-10 3-3 3-1z" fill="#2166B2"/>
<path transform="translate(698,874)" d="m0 0h2l4 8-1 3-5 4-1-6z" fill="#7AA9D8"/>
<path transform="translate(1202,432)" d="m0 0h7l2 2-9 1-3 5v8l-3 8-1-4 1-12 4-7z" fill="#2671BE"/>
<path transform="translate(1297,1562)" d="m0 0 2 1-4 5-8 4h-2v2l-3 1-2-2zm-19 12 2 1z" fill="#3F82C7"/>
<path transform="translate(625,295)" d="m0 0h1v21l-3 14h-1l1-18 1-13z" fill="#4385C8"/>
<path transform="translate(488,1565)" d="m0 0 10 2 16 5 2 1-1 2-27-8z" fill="#3F83C7"/>
<path transform="translate(1324,1546)" d="m0 0 2 1-3 4-4 2h-3v2l-7 3-3 2-4-1 16-9z" fill="#337BC3"/>
<path transform="translate(1266,1544)" d="m0 0m-1 1m-1 1m-2 1h2l-2 4-13 9-1-2 5-5z" fill="#185FAE"/>
<path transform="translate(1357,1258)" d="m0 0 3 3 8 16-4-2-6-10-2-5z" fill="#2D6EB7"/>
<path transform="translate(741,1667)" d="m0 0 10 3 2 2 5 1 3 6-5-2-14-8z" fill="#3D81C6"/>
<path transform="translate(693,152)" d="m0 0v3l-12 14-3-1 8-10z" fill="#347BC3"/>
<path transform="translate(723,121)" d="m0 0m-1 1m-1 1v3l-5 7-9 7-2-1 15-15z" fill="#2F78C2"/>
<path transform="translate(740,108)" d="m0 0m-2 1 2 1-5 5-9 8-4 1 2-4z" fill="#387EC5"/>
<path transform="translate(1109,1121)" d="m0 0 2 1-9 7-9 5-4 3-3-1 17-11z" fill="#2773C0"/>
<path transform="translate(1426,1549)" d="m0 0 4 1-3 2-13 5h-3v-2z" fill="#3E82C6"/>
<path transform="translate(666,1128)" d="m0 0h2l-3 13-2-2v-3l-3-1 2-4z" fill="#97BBE0"/>
<path transform="translate(1106,1099)" d="m0 0m-1 1m-1 1m-1 1m-1 1 3 2-12 9-2-1 5-6z" fill="#1D66B5"/>
<path transform="translate(1293,875)" d="m0 0h1l-1 19h-1l-1-8-4-1z" fill="#76A6D6"/>
<path transform="translate(906,283)" d="m0 0 2 1-12 12-5 7-1-2 5-9 9-7z" fill="#2773C0"/>
<path transform="translate(1120,481)" d="m0 0h1l1 10v9l-1 2h-2l-1-6z" fill="#1A60AE"/>
<path transform="translate(1274,439)" d="m0 0h1l-1 8-3 11-4 3 1-5z" fill="#1F69B7"/>
<path transform="translate(725,1671)" d="m0 0 6 2 14 8-3 1-12-6z" fill="#4083C7"/>
<path transform="translate(831,1667)" d="m0 0 5 5-1 2h-2l-2 2-4-4 1-4z" fill="#2571BE"/>
<path transform="translate(257,1332)" d="m0 0 4 1 2 4 2 2-8-1-4-1 2-4z" fill="#5F97D0"/>
<path transform="translate(1175,476)" d="m0 0 4 2-6 5-1 6-3-1 1-6 3-5z" fill="#1B63B2"/>
<path transform="translate(1292,1648)" d="m0 0 4 1-21 10-2-1 5-4 13-5z" fill="#4687C9"/>
<path transform="translate(1326,1507)" d="m0 0m-1 1m-1 1m-3 1h3l-2 4-8 4-3-1 3-3z" fill="#2367B2"/>
<path transform="translate(619,460)" d="m0 0h1v11l1 6-3-1-1-2v-11z" fill="#4183C7"/>
<path transform="translate(1198,434)" d="m0 0 2 1-3 5-1 12h-3l1-10 1-4z" fill="#175DAD"/>
<path transform="translate(586,1612)" d="m0 0 10 2 14 5-4 1-16-5-4-2z" fill="#4787C9"/>
<path transform="translate(721,1577)" d="m0 0 5 2 8 6v1h-5l-6-4v-2l-3-1z" fill="#377DC4"/>
<path transform="translate(663,1195)" d="m0 0 2 1-4 12-4 4-1-2 4-8z" fill="#4C8BCA"/>
<path transform="translate(574,629)" d="m0 0h1l4 19-3 3-2-12z" fill="#4184C7"/>
<path transform="translate(1404,1667)" d="m0 0 4 1-22 7 1-3 12-4z" fill="#4888C9"/>
<path transform="translate(1581,1620)" d="m0 0h4v2l-21 4v-2l10-3z" fill="#4284C7"/>
<path transform="translate(1609,1479)" d="m0 0h5v2l-17 4-3-1 3-2z" fill="#4888C9"/>
<path transform="translate(1309,1192)" d="m0 0 4 1v3l-7 3-3 3-1-4 4-1 2-4z" fill="#175DAD"/>
<path transform="translate(1173,581)" d="m0 0 3 1-3 4-1 2-6 2-4 2 3-5z" fill="#1B63B2"/>
<path transform="translate(1254,1668)" d="m0 0v3l-12 7h-2v-3l6-3z" fill="#2C76C1"/>
<path transform="translate(1140,1648)" d="m0 0 3 1-4 4h-2v2l-5 5-4 3 2-5 5-6 4-1z" fill="#2C6DB6"/>
<path transform="translate(1355,1619)" d="m0 0m-2 1 3 1-2 2-10 4h-3l1-3z" fill="#4385C8"/>
<path transform="translate(389,1439)" d="m0 0 8 1 7 2-1 2-9-1-5-2z" fill="#2B6CB5"/>
<path transform="translate(1198,486)" d="m0 0v3l-4 5-5 2-3-1 8-7z" fill="#1960B0"/>
<path transform="translate(932,414)" d="m0 0 7 1 5 2-2 4h-4v-2l-3-1v-3z" fill="#2671BF"/>
<path transform="translate(1856,1438)" d="m0 0h13l-2 2-15 2 1-3z" fill="#2065B2"/>
<path transform="translate(1216,1690)" d="m0 0 3 1-4 4-11 7 2-4 9-7z" fill="#387EC5"/>
<path transform="translate(1277,1575)" d="m0 0h2v3l-9 6-3-1 7-6z" fill="#2773C0"/>
<path transform="translate(215,1475)" d="m0 0 21 2v1l-21 1z" fill="#5C95CF"/>
<path transform="translate(1443,1446)" d="m0 0m-3 1h3l-1 3-12 5 2-4z" fill="#2065B2"/>
<path transform="translate(1041,1157)" d="m0 0 3 1-8 3-8 2-8 1 4-2 3-2 11-2z" fill="#2773C0"/>
<path transform="translate(1314,1587)" d="m0 0 2 1-17 9h-2v-2l12-6z" fill="#397EC5"/>
<path transform="translate(1164,267)" d="m0 0h20v1l-16 1-9 3 2-4z" fill="#236DBB"/>
<path transform="translate(880,1758)" d="m0 0 5 5v3h-5l-3-3v-2h3z" fill="#175DAD"/>
<path transform="translate(716,1711)" d="m0 0h5l10 5 5 3-2 1-18-8z" fill="#337BC3"/>
<path transform="translate(1322,1634)" d="m0 0 3 1-16 8-2-1 3-3z" fill="#2D77C1"/>
<path transform="translate(576,1550)" d="m0 0 5 1 14 5-3 1-15-4z" fill="#4687C9"/>
<path transform="translate(1100,1320)" d="m0 0 1 4-5 16h-1v-7l3-8z" fill="#2773C0"/>
<path transform="translate(898,328)" d="m0 0 2 4h2v5l-5-1-1 2 1-8z" fill="#2773C0"/>
<path transform="translate(1313,173)" d="m0 0 4 2 8 12v2h-2l-8-12z" fill="#2D77C1"/>
<path transform="translate(1246,1686)" d="m0 0h2l-2 4-6 4-4-1 3-3z" fill="#4183C7"/>
<path transform="translate(709,1650)" d="m0 0 11 3 4 2-1 3-14-7z" fill="#4788C9"/>
<path transform="translate(680,1636)" d="m0 0 7 1 7 3 1 4-15-7z" fill="#4E8CCB"/>
<path transform="translate(1752,1524)" d="m0 0h16v1l-13 2h-5z" fill="#286BB5"/>
<path transform="translate(1541,1514)" d="m0 0h5l-3 3-12 2-1-2z" fill="#3A7FC5"/>
<path transform="translate(1383,1307)" d="m0 0h3l6 12-1 2-4-4-2-5z" fill="#276AB4"/>
<path transform="translate(1064,632)" d="m0 0h5l2 3-10 1-4-2z" fill="#185FAF"/>
<path transform="translate(1358,572)" d="m0 0h1l-1 14-1 6h-1v-14z" fill="#2773C0"/>
<path transform="translate(1185,572)" d="m0 0h2l-1 4-8 5-3-1z" fill="#1D65B4"/>
<path transform="translate(1205,476)" d="m0 0 1 4-4 6-6 1 6-7z" fill="#206AB8"/>
<path transform="translate(1160,1878)" d="m0 0m-1 1m-1 1 1 3-12 7 2-4z" fill="#2E6EB6"/>
<path transform="translate(528,1534)" d="m0 0 15 3 3 2-17-2z" fill="#508DCC"/>
<path transform="translate(1139,384)" d="m0 0 7 2-2 5-4 1-1-4-1-3z" fill="#1B63B2"/>
<path transform="translate(963,1957)" d="m0 0 11 1 1 3 3 1-8-1-7-2z" fill="#185FAE"/>
<path transform="translate(519,1643)" d="m0 0 8 1 7 3-1 2-14-4z" fill="#4A8ACA"/>
<path transform="translate(1358,1488)" d="m0 0m-1 1m-1 1m-2 1h2l-2 4-7 4-2-1 5-4 1-2z" fill="#185FAE"/>
<path transform="translate(640,240)" d="m0 0 1 4-3 7-3 3 3-12z" fill="#357CC4"/>
<path transform="translate(1890,1627)" d="m0 0h18l-3 2-9 1-6-2z" fill="#296BB5"/>
<path transform="translate(1481,1426)" d="m0 0m-1 1m-1 1m-2 1h2l-1 3-11 5 2-4z" fill="#296BB5"/>
<path transform="translate(669,1395)" d="m0 0 4 2 9 6v2l-5-2-8-7z" fill="#4486C8"/>
<path transform="translate(1159,269)" d="m0 0 1 2-6 7-3 1 2-5z" fill="#1D65B4"/>
<path transform="translate(1366,1629)" d="m0 0 2 1-3 3-9 2v-2z" fill="#4586C8"/>
<path transform="translate(1335,1502)" d="m0 0m-1 1m-3 1h3l-2 4-8 4 2-4 4-1z" fill="#1960B0"/>
<path transform="translate(684,813)" d="m0 0h2l2 6v4l-3-1 1-2-2-1-2-5z" fill="#5C95CF"/>
<path transform="translate(1101,1919)" d="m0 0m-1 1m-1 1m-2 1h2v3l-9 6 2-5h3z" fill="#1960AF"/>
<path transform="translate(669,1643)" d="m0 0 13 6-4 1-8-4z" fill="#2773C0"/>
<path transform="translate(507,1640)" d="m0 0h7l5 3-4 1-8-2z" fill="#3E82C6"/>
<path transform="translate(1636,1610)" d="m0 0 7 1v1l-17 2 1-2z" fill="#3E82C6"/>
<path transform="translate(943,635)" d="m0 0 10 1 6 1v1h-13z" fill="#2773C0"/>
<path transform="translate(1049,34)" d="m0 0 9 1 3 2h-12z" fill="#669CD2"/>
<path transform="translate(1518,1563)" d="m0 0 5 1-4 2-12 3v-2z" fill="#4888C9"/>
<path transform="translate(1360,1356)" d="m0 0 2 1-1 2h-2v2l-7 5 2-5z" fill="#296AB3"/>
<path transform="translate(1125,588)" d="m0 0h5l-3 3-6 2-2-1 1-3z" fill="#195FAE"/>
<path transform="translate(1374,466)" d="m0 0 3 3-3-1z" fill="#FEFEFE"/>
<path transform="translate(1321,1129)" d="m0 0" fill="#FEFEFE"/>
</svg>
